  0
SECTION
  2
HEADER
  9
$ACADVER
  1
AC1009
  9
$INSBASE
 10
0.0
 20
0.0
 30
0.0
  9
$EXTMIN
 10
0.0
 20
0.0
 30
0.0
  9
$EXTMAX
 10
0.0
 20
0.0
 30
0.0
  0
ENDSEC
  0
SECTION
  2
TABLES
  0
TABLE
  2
VPORT
 70
1
  0
VPORT
  2
*ACTIVE
 70
0
 10
0.0
 20
0.0
 11
1.0
 21
1.0
 12
-5.0
 22
1.0
 13
0.0
 23
0.0
 14
0.1
 24
0.1
 15
0.1
 25
0.1
 16
0.0
 26
0.0
 36
1.0
 17
0.0
 27
0.0
 37
0.0
 40
10.0
 41
1.0
 42
50.0
 43
0.0
 44
0.0
 50
0.0
 51
0.0
 71
0
 72
100
 73
1
 74
1
 75
0
 76
0
 77
0
 78
0
  0
ENDTAB
  0
TABLE
  2
LTYPE
 70
8
  0
LTYPE
  2
CONTINUOUS
 70
0
  3
Solid line
 72
65
 73
0
 40
0.0
  0
LTYPE
  2
DOT
 70
0
  3
. . . . . . .
 72
65
 73
2
 40
0.25
 49
0.0
 49
-0.25
  0
LTYPE
  2
DASHED
 70
0
  3
__ __ __ __ __
 72
65
 73
2
 40
0.8
 49
0.5
 49
-0.3
  0
LTYPE
  2
DASHDOT
 70
0
  3
__ . __ . __ .
 72
65
 73
4
 40
1.0
 49
0.5
 49
-0.25
 49
0.0
 49
-0.25
  0
LTYPE
  2
DIVIDE
 70
0
  3
____ . . ____ . . 
 72
65
 73
6
 40
1.25
 49
0.5
 49
-0.25
 49
0.0
 49
-0.25
 49
0.0
 49
-0.25
  0
LTYPE
  2
BORDER
 70
0
  3
__ __ . __ __ . 
 72
65
 73
6
 40
1.75
 49
0.5
 49
-0.25
 49
0.5
 49
-0.25
 49
0.0
 49
-0.25
  0
LTYPE
  2
HIDDEN
 70
0
  3
__ __ __ __ __
 72
65
 73
2
 40
0.4
 49
0.25
 49
-0.25
  0
LTYPE
  2
CENTER
 70
0
  3
____ _ ____ _ __
 72
65
 73
4
 40
2.0
 49
1.25
 49
-0.25
 49
0.25
 49
-0.25
  0
ENDTAB
  0
TABLE
  2
LAYER
 70
1
  0
LAYER
  2
PYDXF
 70
64
 62
7
  6
continuous
  0
ENDTAB
  0
TABLE
  2
STYLE
 70
1
  0
STYLE
  2
STANDARD
 70
0
 40
0
 41
1.0
 50
0.0
 71
0
 42
1
 3
ARIAL.TTF
 4

  0
ENDTAB
  0
TABLE
  2
VIEW
 70
1
  0
VIEW
  2
BF_TOPVIEW
 70
0
 40
120.0
 10
0.0
 20
0.0
 41
200.0
 11
0.0
 21
0.0
 31
1.0
 12
0.0
 22
0.0
 32
0.0
 42
50.0
 43
0.0
 44
0.0
 50
0.0
 71
0
  0
ENDTAB
  0
ENDSEC
  0
SECTION
  2
BLOCKS
  0
ENDSEC
  0
SECTION
  2
ENTITIES
  0
3DFACE
  8
0
 10
0.11852806061506271
 20
0.752288818359375
 30
0.6442296504974365
 11
0.10309439152479172
 21
0.7674812078475952
 31
0.7702714204788208
 12
0.48983311653137207
 22
0.7696382999420166
 32
0.7997725605964661
 13
0.48983311653137207
 23
0.7696382999420166
 33
0.7997725605964661
  0
3DFACE
  8
0
 10
0.11852806061506271
 20
0.752288818359375
 30
0.6442296504974365
 11
0.48983311653137207
 21
0.7696382999420166
 31
0.7997725605964661
 12
0.5631632208824158
 22
0.7530295848846436
 32
0.6543598175048828
 13
0.5631632208824158
 23
0.7530295848846436
 33
0.6543598175048828
  0
3DFACE
  8
0
 10
0.4760807752609253
 20
-0.4997597336769104
 30
0.7932763695716858
 11
0.5307801365852356
 21
-0.29382389783859253
 31
0.7174232006072998
 12
0.3495596945285797
 22
-0.3634171783924103
 32
1.0654330253601074
 13
0.3495596945285797
 23
-0.3634171783924103
 33
1.0654330253601074
  0
3DFACE
  8
0
 10
0.07160968333482742
 20
0.6335728168487549
 30
0.02859470248222351
 11
0.34023958444595337
 21
0.6335728168487549
 31
0.02859470248222351
 12
0.34023958444595337
 22
-0.18023960292339325
 32
0.02859470248222351
 13
0.34023958444595337
 23
-0.18023960292339325
 33
0.02859470248222351
  0
3DFACE
  8
0
 10
0.07160968333482742
 20
0.6335728168487549
 30
0.02859470248222351
 11
0.34023958444595337
 21
-0.18023960292339325
 31
0.02859470248222351
 12
0.07160968333482742
 22
-0.18023960292339325
 32
0.02859470248222351
 13
0.07160968333482742
 23
-0.18023960292339325
 33
0.02859470248222351
  0
3DFACE
  8
0
 10
0.10309439152479172
 20
0.7674812078475952
 30
0.7702714204788208
 11
0.0
 21
0.7669061422348022
 31
0.7624071836471558
 12
0.0
 22
-0.040588755160570145
 32
1.2658405303955078
 13
0.0
 23
-0.040588755160570145
 33
1.2658405303955078
  0
3DFACE
  8
0
 10
0.10309439152479172
 20
0.7674812078475952
 30
0.7702714204788208
 11
0.0
 21
-0.040588755160570145
 31
1.2658405303955078
 12
0.06020217388868332
 22
-0.04057274013757706
 32
1.2660596370697021
 13
0.06020217388868332
 23
-0.04057274013757706
 33
1.2660596370697021
  0
3DFACE
  8
0
 10
0.10019997507333755
 20
-0.5001385807991028
 30
0.7880954742431641
 11
0.07357127219438553
 21
-0.3569079637527466
 31
1.095210075378418
 12
0.0
 22
-0.3551727831363678
 32
1.1031478643417358
 13
0.0
 23
-0.3551727831363678
 33
1.1031478643417358
  0
3DFACE
  8
0
 10
0.10019997507333755
 20
-0.5001385807991028
 30
0.7880954742431641
 11
0.0
 21
-0.3551727831363678
 31
1.1031478643417358
 12
0.0
 22
-0.5002395510673523
 32
0.7867143750190735
 13
0.0
 23
-0.5002395510673523
 33
0.7867143750190735
  0
3DFACE
  8
0
 10
0.11391352862119675
 20
-0.5389152765274048
 30
0.3768364489078522
 11
0.1254165917634964
 21
-0.636444628238678
 31
0.47152864933013916
 12
0.0
 22
-0.6365358233451843
 32
0.47028085589408875
 13
0.0
 23
-0.6365358233451843
 33
0.47028085589408875
  0
3DFACE
  8
0
 10
0.11391352862119675
 20
-0.5389152765274048
 30
0.3768364489078522
 11
0.0
 21
-0.6365358233451843
 31
0.47028085589408875
 12
0.0
 22
-0.5389870405197144
 32
0.375855416059494
 13
0.0
 23
-0.5389870405197144
 33
0.375855416059494
  0
3DFACE
  8
0
 10
0.6080514788627625
 20
0.7364208102226257
 30
0.5089470744132996
 11
0.5631632208824158
 21
0.7530295848846436
 31
0.6543598175048828
 12
0.5459633469581604
 22
0.1970071643590927
 32
0.6878551244735718
 13
0.5459633469581604
 23
0.1970071643590927
 33
0.6878551244735718
  0
3DFACE
  8
0
 10
0.11592549830675125
 20
0.714964747428894
 30
0.4135206937789917
 11
0.12797565758228302
 21
0.7370964288711548
 31
0.5181878805160522
 12
0.6080514788627625
 22
0.7364208102226257
 32
0.5089470744132996
 13
0.6080514788627625
 23
0.7364208102226257
 33
0.5089470744132996
  0
3DFACE
  8
0
 10
0.11592549830675125
 20
0.714964747428894
 30
0.4135206937789917
 11
0.6080514788627625
 21
0.7364208102226257
 31
0.5089470744132996
 12
0.5507975816726685
 22
0.7144336104393005
 32
0.40625542402267456
 13
0.5507975816726685
 23
0.7144336104393005
 33
0.40625542402267456
  0
3DFACE
  8
0
 10
0.07357127219438553
 20
-0.3569079637527466
 30
1.095210075378418
 11
0.3495596945285797
 21
-0.3634171783924103
 31
1.0654330253601074
 12
0.33293673396110535
 22
-0.3301931321620941
 32
1.1465121507644653
 13
0.33293673396110535
 23
-0.3301931321620941
 33
1.1465121507644653
  0
3DFACE
  8
0
 10
0.07357127219438553
 20
-0.3569079637527466
 30
1.095210075378418
 11
0.33293673396110535
 21
-0.3301931321620941
 31
1.1465121507644653
 12
0.07007266581058502
 22
-0.3303132951259613
 32
1.1448687314987183
 13
0.07007266581058502
 23
-0.3303132951259613
 33
1.1448687314987183
  0
3DFACE
  8
0
 10
0.3495596945285797
 20
-0.3634171783924103
 30
1.0654330253601074
 11
0.48983311653137207
 21
0.7696382999420166
 31
0.7997725605964661
 12
0.2860390543937683
 22
-0.040512681007385254
 32
1.2668812274932861
 13
0.2860390543937683
 23
-0.040512681007385254
 33
1.2668812274932861
  0
3DFACE
  8
0
 10
0.3495596945285797
 20
-0.3634171783924103
 30
1.0654330253601074
 11
0.2860390543937683
 21
-0.040512681007385254
 31
1.2668812274932861
 12
0.33293673396110535
 22
-0.3301931321620941
 32
1.1465121507644653
 13
0.33293673396110535
 23
-0.3301931321620941
 33
1.1465121507644653
  0
3DFACE
  8
0
 10
0.1254165917634964
 20
-0.636444628238678
 30
0.47152864933013916
 11
0.10019997507333755
 21
-0.5001385807991028
 31
0.7880954742431641
 12
0.0
 22
-0.5002395510673523
 32
0.7867143750190735
 13
0.0
 23
-0.5002395510673523
 33
0.7867143750190735
  0
3DFACE
  8
0
 10
0.1254165917634964
 20
-0.636444628238678
 30
0.47152864933013916
 11
0.0
 21
-0.5002395510673523
 31
0.7867143750190735
 12
0.0
 22
-0.6365358233451843
 32
0.47028085589408875
 13
0.0
 23
-0.6365358233451843
 33
0.47028085589408875
  0
3DFACE
  8
0
 10
0.12797565758228302
 20
0.7370964288711548
 30
0.5181878805160522
 11
0.11852806061506271
 21
0.752288818359375
 31
0.6442296504974365
 12
0.5631632208824158
 22
0.7530295848846436
 32
0.6543598175048828
 13
0.5631632208824158
 23
0.7530295848846436
 33
0.6543598175048828
  0
3DFACE
  8
0
 10
0.12797565758228302
 20
0.7370964288711548
 30
0.5181878805160522
 11
0.5631632208824158
 21
0.7530295848846436
 31
0.6543598175048828
 12
0.6080514788627625
 22
0.7364208102226257
 32
0.5089470744132996
 13
0.6080514788627625
 23
0.7364208102226257
 33
0.5089470744132996
  0
3DFACE
  8
0
 10
0.48983311653137207
 20
0.7696382999420166
 30
0.7997725605964661
 11
0.3495596945285797
 21
-0.3634171783924103
 31
1.0654330253601074
 12
0.5307801365852356
 22
-0.29382389783859253
 32
0.7174232006072998
 13
0.5307801365852356
 23
-0.29382389783859253
 33
0.7174232006072998
  0
3DFACE
  8
0
 10
0.5459633469581604
 20
0.1970071643590927
 30
0.6878551244735718
 11
0.5631632208824158
 21
0.7530295848846436
 31
0.6543598175048828
 12
0.48983311653137207
 22
0.7696382999420166
 32
0.7997725605964661
 13
0.48983311653137207
 23
0.7696382999420166
 33
0.7997725605964661
  0
3DFACE
  8
0
 10
0.5307801365852356
 20
-0.29382389783859253
 30
0.7174232006072998
 11
0.5459633469581604
 21
0.1970071643590927
 31
0.6878551244735718
 12
0.48983311653137207
 22
0.7696382999420166
 32
0.7997725605964661
 13
0.48983311653137207
 23
0.7696382999420166
 33
0.7997725605964661
  0
3DFACE
  8
0
 10
0.6080514788627625
 20
0.7364208102226257
 30
0.5089470744132996
 11
0.5459633469581604
 21
0.1970071643590927
 31
0.6878551244735718
 12
0.6060943007469177
 22
0.5154817700386047
 32
0.5036771893501282
 13
0.6060943007469177
 23
0.5154817700386047
 33
0.5036771893501282
  0
3DFACE
  8
0
 10
0.5958927869796753
 20
-0.6361024379730225
 30
0.47620949149131775
 11
0.5307801365852356
 21
-0.29382389783859253
 31
0.7174232006072998
 12
0.4760807752609253
 22
-0.4997597336769104
 32
0.7932763695716858
 13
0.4760807752609253
 23
-0.4997597336769104
 33
0.7932763695716858
  0
3DFACE
  8
0
 10
0.528932511806488
 20
-0.4880342483520508
 30
0.0007201731204986572
 11
0.498543381690979
 21
-0.46251586079597473
 31
0.3057636618614197
 12
0.5507975816726685
 22
0.7144336104393005
 32
0.40625542402267456
 13
0.5507975816726685
 23
0.7144336104393005
 33
0.40625542402267456
  0
3DFACE
  8
0
 10
0.528932511806488
 20
-0.4880342483520508
 30
0.0007201731204986572
 11
0.5507975816726685
 21
0.7144336104393005
 31
0.40625542402267456
 12
0.528932511806488
 22
0.6452196836471558
 32
0.0007201731204986572
 13
0.528932511806488
 23
0.6452196836471558
 33
0.0007201731204986572
  0
3DFACE
  8
0
 10
0.528932511806488
 20
0.6452196836471558
 30
0.0007201731204986572
 11
0.5507975816726685
 21
0.7144336104393005
 31
0.40625542402267456
 12
1.0409295558929443
 22
0.6452197432518005
 32
0.10353609919548035
 13
1.0409295558929443
 23
0.6452197432518005
 33
0.10353609919548035
  0
3DFACE
  8
0
 10
0.528932511806488
 20
0.6452196836471558
 30
0.0007201731204986572
 11
1.0409295558929443
 21
0.6452197432518005
 31
0.10353609919548035
 12
1.0459195375442505
 22
0.6452196836471558
 32
-0.001774817705154419
 13
1.0459195375442505
 23
0.6452196836471558
 33
-0.001774817705154419
  0
3DFACE
  8
0
 10
1.0459195375442505
 20
0.6452196836471558
 30
-0.001774817705154419
 11
1.0409295558929443
 21
0.6452197432518005
 31
0.10353609919548035
 12
1.0409295558929443
 22
-0.5129842758178711
 32
0.1234961450099945
 13
1.0409295558929443
 23
-0.5129842758178711
 33
0.1234961450099945
  0
3DFACE
  8
0
 10
1.0459195375442505
 20
0.6452196836471558
 30
-0.001774817705154419
 11
1.0409295558929443
 21
-0.5129842758178711
 31
0.1234961450099945
 12
1.0459195375442505
 22
-0.4531041383743286
 32
-0.001774817705154419
 13
1.0459195375442505
 23
-0.4531041383743286
 33
-0.001774817705154419
  0
3DFACE
  8
0
 10
1.0459195375442505
 20
-0.4531041383743286
 30
-0.001774817705154419
 11
1.0409295558929443
 21
-0.5129842758178711
 31
0.1234961450099945
 12
0.498543381690979
 22
-0.46251586079597473
 32
0.3057636618614197
 13
0.498543381690979
 23
-0.46251586079597473
 33
0.3057636618614197
  0
3DFACE
  8
0
 10
1.0459195375442505
 20
-0.4531041383743286
 30
-0.001774817705154419
 11
0.498543381690979
 21
-0.46251586079597473
 31
0.3057636618614197
 12
0.528932511806488
 22
-0.4880342483520508
 32
0.0007201731204986572
 13
0.528932511806488
 23
-0.4880342483520508
 33
0.0007201731204986572
  0
3DFACE
  8
0
 10
0.528932511806488
 20
0.6452196836471558
 30
0.0007201731204986572
 11
1.0459195375442505
 21
0.6452196836471558
 31
-0.001774817705154419
 12
1.0459195375442505
 22
-0.4531041383743286
 32
-0.001774817705154419
 13
1.0459195375442505
 23
-0.4531041383743286
 33
-0.001774817705154419
  0
3DFACE
  8
0
 10
0.528932511806488
 20
0.6452196836471558
 30
0.0007201731204986572
 11
1.0459195375442505
 21
-0.4531041383743286
 31
-0.001774817705154419
 12
0.528932511806488
 22
-0.4880342483520508
 32
0.0007201731204986572
 13
0.528932511806488
 23
-0.4880342483520508
 33
0.0007201731204986572
  0
3DFACE
  8
0
 10
1.0409295558929443
 20
-0.5129842758178711
 30
0.1234961450099945
 11
1.0409295558929443
 21
0.6452197432518005
 31
0.10353609919548035
 12
1.027549147605896
 22
0.18186134099960327
 32
0.5345480442047119
 13
1.027549147605896
 23
0.18186134099960327
 33
0.5345480442047119
  0
3DFACE
  8
0
 10
0.6002678871154785
 20
-0.14222215116024017
 30
0.4879895746707916
 11
0.498543381690979
 21
-0.46251586079597473
 31
0.3057636618614197
 12
1.0409295558929443
 22
-0.5129842758178711
 32
0.1234961450099945
 13
1.0409295558929443
 23
-0.5129842758178711
 33
0.1234961450099945
  0
3DFACE
  8
0
 10
1.0409295558929443
 20
-0.5129842758178711
 30
0.1234961450099945
 11
1.027549147605896
 21
0.18186134099960327
 31
0.5345480442047119
 12
0.5459633469581604
 22
0.1970071643590927
 32
0.6878551244735718
 13
0.5459633469581604
 23
0.1970071643590927
 33
0.6878551244735718
  0
3DFACE
  8
0
 10
1.0409295558929443
 20
-0.5129842758178711
 30
0.1234961450099945
 11
0.5459633469581604
 21
0.1970071643590927
 31
0.6878551244735718
 12
0.6002678871154785
 22
-0.14222215116024017
 32
0.4879895746707916
 13
0.6002678871154785
 23
-0.14222215116024017
 33
0.4879895746707916
  0
3DFACE
  8
0
 10
1.027549147605896
 20
0.18186134099960327
 30
0.5345480442047119
 11
1.0409295558929443
 21
0.6452197432518005
 31
0.10353609919548035
 12
0.5507975816726685
 22
0.7144336104393005
 32
0.40625542402267456
 13
0.5507975816726685
 23
0.7144336104393005
 33
0.40625542402267456
  0
3DFACE
  8
0
 10
0.6060943007469177
 20
0.5154817700386047
 30
0.5036771893501282
 11
0.5459633469581604
 21
0.1970071643590927
 31
0.6878551244735718
 12
1.027549147605896
 22
0.18186134099960327
 32
0.5345480442047119
 13
1.027549147605896
 23
0.18186134099960327
 33
0.5345480442047119
  0
3DFACE
  8
0
 10
0.5507975816726685
 20
0.7144336104393005
 30
0.40625542402267456
 11
0.6060943007469177
 21
0.5154817700386047
 31
0.5036771893501282
 12
1.027549147605896
 22
0.18186134099960327
 32
0.5345480442047119
 13
1.027549147605896
 23
0.18186134099960327
 33
0.5345480442047119
  0
3DFACE
  8
0
 10
0.0
 20
1.7435870170593262
 30
1.2956688404083252
 11
0.0
 21
1.6676970720291138
 31
1.3681968450546265
 12
0.052735891193151474
 22
1.6676970720291138
 32
1.3681968450546265
 13
0.052735891193151474
 23
1.6676970720291138
 33
1.3681968450546265
  0
3DFACE
  8
0
 10
0.0
 20
1.7435870170593262
 30
1.2956688404083252
 11
0.052735891193151474
 21
1.6676970720291138
 31
1.3681968450546265
 12
0.052735891193151474
 22
1.7435870170593262
 32
1.2956688404083252
 13
0.052735891193151474
 23
1.7435870170593262
 33
1.2956688404083252
  0
3DFACE
  8
0
 10
0.0934237614274025
 20
0.673637330532074
 30
0.21807128190994263
 11
0.06405337154865265
 21
0.9566196799278259
 31
0.22097928822040558
 12
0.052735891193151474
 22
1.7435870170593262
 32
1.2956688404083252
 13
0.052735891193151474
 23
1.7435870170593262
 33
1.2956688404083252
  0
3DFACE
  8
0
 10
0.052735891193151474
 20
1.7435870170593262
 30
1.2956688404083252
 11
0.052735891193151474
 21
1.6676970720291138
 31
1.3681968450546265
 12
0.11852806061506271
 22
0.752288818359375
 32
0.6442296504974365
 13
0.11852806061506271
 23
0.752288818359375
 33
0.6442296504974365
  0
3DFACE
  8
0
 10
0.052735891193151474
 20
1.7435870170593262
 30
1.2956688404083252
 11
0.11852806061506271
 21
0.752288818359375
 31
0.6442296504974365
 12
0.12797565758228302
 22
0.7370964288711548
 32
0.5181878805160522
 13
0.12797565758228302
 23
0.7370964288711548
 33
0.5181878805160522
  0
3DFACE
  8
0
 10
0.10651222616434097
 20
0.6976760029792786
 30
0.33175721764564514
 11
0.0934237614274025
 21
0.673637330532074
 31
0.21807128190994263
 12
0.052735891193151474
 22
1.7435870170593262
 32
1.2956688404083252
 13
0.052735891193151474
 23
1.7435870170593262
 33
1.2956688404083252
  0
3DFACE
  8
0
 10
0.052735891193151474
 20
1.7435870170593262
 30
1.2956688404083252
 11
0.12797565758228302
 21
0.7370964288711548
 31
0.5181878805160522
 12
0.11592549830675125
 22
0.714964747428894
 32
0.4135206937789917
 13
0.11592549830675125
 23
0.714964747428894
 33
0.4135206937789917
  0
3DFACE
  8
0
 10
0.052735891193151474
 20
1.7435870170593262
 30
1.2956688404083252
 11
0.11592549830675125
 21
0.714964747428894
 31
0.4135206937789917
 12
0.10651222616434097
 22
0.6976760029792786
 32
0.33175721764564514
 13
0.10651222616434097
 23
0.6976760029792786
 33
0.33175721764564514
  0
3DFACE
  8
0
 10
0.11852806061506271
 20
0.752288818359375
 30
0.6442296504974365
 11
0.052735891193151474
 21
1.6676970720291138
 31
1.3681968450546265
 12
0.0
 22
1.6676970720291138
 32
1.3681968450546265
 13
0.0
 23
1.6676970720291138
 33
1.3681968450546265
  0
3DFACE
  8
0
 10
0.11852806061506271
 20
0.752288818359375
 30
0.6442296504974365
 11
0.0
 21
1.6676970720291138
 31
1.3681968450546265
 12
0.0
 22
0.7520913481712341
 32
0.6415292024612427
 13
0.0
 23
0.7520913481712341
 33
0.6415292024612427
  0
3DFACE
  8
0
 10
0.06405337154865265
 20
0.9566196799278259
 30
0.22097928822040558
 11
0.0
 21
0.9566196799278259
 31
0.22097928822040558
 12
0.0
 22
1.7435870170593262
 32
1.2956688404083252
 13
0.0
 23
1.7435870170593262
 33
1.2956688404083252
  0
3DFACE
  8
0
 10
0.06405337154865265
 20
0.9566196799278259
 30
0.22097928822040558
 11
0.0
 21
1.7435870170593262
 31
1.2956688404083252
 12
0.052735891193151474
 22
1.7435870170593262
 32
1.2956688404083252
 13
0.052735891193151474
 23
1.7435870170593262
 33
1.2956688404083252
  0
3DFACE
  8
0
 10
0.07160968333482742
 20
0.6335728168487549
 30
0.02859470248222351
 11
0.0934237614274025
 21
0.673637330532074
 31
0.21807128190994263
 12
0.4438849985599518
 22
0.6733759045600891
 32
0.21449503302574158
 13
0.4438849985599518
 23
0.6733759045600891
 33
0.21449503302574158
  0
3DFACE
  8
0
 10
0.07160968333482742
 20
0.6335728168487549
 30
0.02859470248222351
 11
0.4438849985599518
 21
0.6733759045600891
 31
0.21449503302574158
 12
0.34023958444595337
 22
0.6335728168487549
 32
0.02859470248222351
 13
0.34023958444595337
 23
0.6335728168487549
 33
0.02859470248222351
  0
3DFACE
  8
0
 10
0.06405337154865265
 20
0.9566196799278259
 30
0.22097928822040558
 11
0.0934237614274025
 21
0.673637330532074
 31
0.21807128190994263
 12
0.0
 22
0.6737070083618164
 32
0.2190246284008026
 13
0.0
 23
0.6737070083618164
 33
0.2190246284008026
  0
3DFACE
  8
0
 10
0.06405337154865265
 20
0.9566196799278259
 30
0.22097928822040558
 11
0.0
 21
0.6737070083618164
 31
0.2190246284008026
 12
0.0
 22
0.9566196799278259
 32
0.22097928822040558
 13
0.0
 23
0.9566196799278259
 33
0.22097928822040558
  0
3DFACE
  8
0
 10
0.07417850941419601
 20
0.3272078037261963
 30
1.7172234058380127
 11
0.05777651071548462
 21
0.08787380903959274
 31
1.9616243839263916
 12
0.27451393008232117
 22
0.08787380903959274
 32
1.9616243839263916
 13
0.27451393008232117
 23
0.08787380903959274
 33
1.9616243839263916
  0
3DFACE
  8
0
 10
0.07417850941419601
 20
0.3272078037261963
 30
1.7172234058380127
 11
0.27451393008232117
 21
0.08787380903959274
 31
1.9616243839263916
 12
0.3524448573589325
 22
0.3272078037261963
 32
1.7172234058380127
 13
0.3524448573589325
 23
0.3272078037261963
 33
1.7172234058380127
  0
3DFACE
  8
0
 10
0.3524448573589325
 20
0.3272078037261963
 30
1.7172234058380127
 11
0.27451393008232117
 21
0.08787380903959274
 31
1.9616243839263916
 12
0.3934105634689331
 22
-0.4565456211566925
 32
1.8395018577575684
 13
0.3934105634689331
 23
-0.4565456211566925
 33
1.8395018577575684
  0
3DFACE
  8
0
 10
0.3524448573589325
 20
0.3272078037261963
 30
1.7172234058380127
 11
0.3934105634689331
 21
-0.4565456211566925
 31
1.8395018577575684
 12
0.5363131165504456
 22
-0.378202885389328
 32
1.4947099685668945
 13
0.5363131165504456
 23
-0.378202885389328
 33
1.4947099685668945
  0
3DFACE
  8
0
 10
0.06020217388868332
 20
-0.04057274013757706
 30
1.2660596370697021
 11
0.05033170059323311
 21
0.2491677701473236
 31
1.3872504234313965
 12
0.2391413450241089
 22
0.2491677701473236
 32
1.3872504234313965
 13
0.2391413450241089
 23
0.2491677701473236
 33
1.3872504234313965
  0
3DFACE
  8
0
 10
0.06020217388868332
 20
-0.04057274013757706
 30
1.2660596370697021
 11
0.2391413450241089
 21
0.2491677701473236
 31
1.3872504234313965
 12
0.2860390543937683
 22
-0.040512681007385254
 32
1.2668812274932861
 13
0.2860390543937683
 23
-0.040512681007385254
 33
1.2668812274932861
  0
3DFACE
  8
0
 10
0.05777651071548462
 20
0.08787380903959274
 30
1.9616243839263916
 11
0.0
 21
0.08787380903959274
 31
1.9616243839263916
 12
0.0
 22
-0.4565456211566925
 32
1.8395018577575684
 13
0.0
 23
-0.4565456211566925
 33
1.8395018577575684
  0
3DFACE
  8
0
 10
0.05777651071548462
 20
0.08787380903959274
 30
1.9616243839263916
 11
0.0
 21
-0.4565456211566925
 31
1.8395018577575684
 12
0.08280049264431
 22
-0.4565456211566925
 32
1.8395018577575684
 13
0.08280049264431
 23
-0.4565456211566925
 33
1.8395018577575684
  0
3DFACE
  8
0
 10
0.08028775453567505
 20
-0.5662819147109985
 30
1.7910023927688599
 11
0.0
 21
-0.5662819147109985
 31
1.7910023927688599
 12
0.0
 22
-0.9847483038902283
 32
1.4820258617401123
 13
0.0
 23
-0.9847483038902283
 33
1.4820258617401123
  0
3DFACE
  8
0
 10
0.08028775453567505
 20
-0.5662819147109985
 30
1.7910023927688599
 11
0.0
 21
-0.9847483038902283
 31
1.4820258617401123
 12
0.05438175052404404
 22
-0.9847483038902283
 32
1.4820258617401123
 13
0.05438175052404404
 23
-0.9847483038902283
 33
1.4820258617401123
  0
3DFACE
  8
0
 10
0.5363131165504456
 20
-0.378202885389328
 30
1.4947099685668945
 11
0.3934105634689331
 21
-0.4565456211566925
 31
1.8395018577575684
 12
0.38147178292274475
 22
-0.5662819147109985
 32
1.7910023927688599
 13
0.38147178292274475
 23
-0.5662819147109985
 33
1.7910023927688599
  0
3DFACE
  8
0
 10
0.5363131165504456
 20
-0.378202885389328
 30
1.4947099685668945
 11
0.38147178292274475
 21
-0.5662819147109985
 31
1.7910023927688599
 12
0.5324175357818604
 22
-0.48102661967277527
 32
1.4485145807266235
 13
0.5324175357818604
 23
-0.48102661967277527
 33
1.4485145807266235
  0
3DFACE
  8
0
 10
0.08280049264431
 20
-0.4565456211566925
 30
1.8395018577575684
 11
0.0
 21
-0.4565456211566925
 31
1.8395018577575684
 12
0.0
 22
-0.5662819147109985
 32
1.7910023927688599
 13
0.0
 23
-0.5662819147109985
 33
1.7910023927688599
  0
3DFACE
  8
0
 10
0.08280049264431
 20
-0.4565456211566925
 30
1.8395018577575684
 11
0.0
 21
-0.5662819147109985
 31
1.7910023927688599
 12
0.08028775453567505
 22
-0.5662819147109985
 32
1.7910023927688599
 13
0.08028775453567505
 23
-0.5662819147109985
 33
1.7910023927688599
  0
3DFACE
  8
0
 10
0.07007266581058502
 20
-0.3303132951259613
 30
1.1448687314987183
 11
0.33293673396110535
 21
-0.3301931321620941
 31
1.1465121507644653
 12
0.38327208161354065
 22
-0.39577123522758484
 32
1.1060266494750977
 13
0.38327208161354065
 23
-0.39577123522758484
 33
1.1060266494750977
  0
3DFACE
  8
0
 10
0.07007266581058502
 20
-0.3303132951259613
 30
1.1448687314987183
 11
0.38327208161354065
 21
-0.39577123522758484
 31
1.1060266494750977
 12
0.0806666761636734
 22
-0.39577123522758484
 32
1.1060266494750977
 13
0.0806666761636734
 23
-0.39577123522758484
 33
1.1060266494750977
  0
3DFACE
  8
0
 10
0.5324175357818604
 20
-0.48102661967277527
 30
1.4485145807266235
 11
0.38147178292274475
 21
-0.5662819147109985
 31
1.7910023927688599
 12
0.25838449597358704
 22
-0.9847483038902283
 32
1.4820258617401123
 13
0.25838449597358704
 23
-0.9847483038902283
 33
1.4820258617401123
  0
3DFACE
  8
0
 10
0.5324175357818604
 20
-0.48102661967277527
 30
1.4485145807266235
 11
0.25838449597358704
 21
-0.9847483038902283
 31
1.4820258617401123
 12
0.4395367205142975
 22
-0.8799680471420288
 32
1.2988351583480835
 13
0.4395367205142975
 23
-0.8799680471420288
 33
1.2988351583480835
  0
3DFACE
  8
0
 10
0.0806666761636734
 20
-0.39577123522758484
 30
1.1060266494750977
 11
0.38327208161354065
 21
-0.39577123522758484
 31
1.1060266494750977
 12
0.3205978572368622
 22
-0.7751877903938293
 32
1.1156444549560547
 13
0.3205978572368622
 23
-0.7751877903938293
 33
1.1156444549560547
  0
3DFACE
  8
0
 10
0.0806666761636734
 20
-0.39577123522758484
 30
1.1060266494750977
 11
0.3205978572368622
 21
-0.7751877903938293
 31
1.1156444549560547
 12
0.06747569143772125
 22
-0.7751877903938293
 32
1.1101866960525513
 13
0.06747569143772125
 23
-0.7751877903938293
 33
1.1101866960525513
  0
3DFACE
  8
0
 10
0.02538846991956234
 20
-1.2273948192596436
 30
1.197602391242981
 11
0.02246907912194729
 21
-1.230790376663208
 31
1.2542529106140137
 12
0.0
 22
-1.230790376663208
 32
1.2542529106140137
 13
0.0
 23
-1.230790376663208
 33
1.2542529106140137
  0
3DFACE
  8
0
 10
0.02538846991956234
 20
-1.2273948192596436
 30
1.197602391242981
 11
0.0
 21
-1.230790376663208
 31
1.2542529106140137
 12
0.0
 22
-1.2273948192596436
 32
1.197602391242981
 13
0.0
 23
-1.2273948192596436
 33
1.197602391242981
  0
3DFACE
  8
0
 10
0.06747569143772125
 20
-0.7751877903938293
 30
1.1101866960525513
 11
0.3205978572368622
 21
-0.7751877903938293
 31
1.1156444549560547
 12
0.1344994753599167
 22
-1.2239991426467896
 32
1.1409518718719482
 13
0.1344994753599167
 23
-1.2239991426467896
 33
1.1409518718719482
  0
3DFACE
  8
0
 10
0.06747569143772125
 20
-0.7751877903938293
 30
1.1101866960525513
 11
0.1344994753599167
 21
-1.2239991426467896
 31
1.1409518718719482
 12
0.02830786257982254
 22
-1.2239991426467896
 32
1.1409518718719482
 13
0.02830786257982254
 23
-1.2239991426467896
 33
1.1409518718719482
  0
3DFACE
  8
0
 10
0.05438175052404404
 20
-0.9847483038902283
 30
1.4820258617401123
 11
0.0
 21
-0.9847483038902283
 31
1.4820258617401123
 12
0.0
 22
-1.230790376663208
 32
1.2542529106140137
 13
0.0
 23
-1.230790376663208
 33
1.2542529106140137
  0
3DFACE
  8
0
 10
0.05438175052404404
 20
-0.9847483038902283
 30
1.4820258617401123
 11
0.0
 21
-1.230790376663208
 31
1.2542529106140137
 12
0.02246907912194729
 22
-1.230790376663208
 32
1.2542529106140137
 13
0.02246907912194729
 23
-1.230790376663208
 33
1.2542529106140137
  0
3DFACE
  8
0
 10
0.4395367205142975
 20
-0.8799680471420288
 30
1.2988351583480835
 11
0.25838449597358704
 21
-0.9847483038902283
 31
1.4820258617401123
 12
0.10675763338804245
 22
-1.230790376663208
 32
1.2542529106140137
 13
0.10675763338804245
 23
-1.230790376663208
 33
1.2542529106140137
  0
3DFACE
  8
0
 10
0.4395367205142975
 20
-0.8799680471420288
 30
1.2988351583480835
 11
0.10675763338804245
 21
-1.230790376663208
 31
1.2542529106140137
 12
0.12062855809926987
 22
-1.2273948192596436
 32
1.197602391242981
 13
0.12062855809926987
 23
-1.2273948192596436
 33
1.197602391242981
  0
3DFACE
  8
0
 10
0.3205978572368622
 20
-0.7751877903938293
 30
1.1156444549560547
 11
0.4395367205142975
 21
-0.8799680471420288
 31
1.2988351583480835
 12
0.12062855809926987
 22
-1.2273948192596436
 32
1.197602391242981
 13
0.12062855809926987
 23
-1.2273948192596436
 33
1.197602391242981
  0
3DFACE
  8
0
 10
0.3205978572368622
 20
-0.7751877903938293
 30
1.1156444549560547
 11
0.12062855809926987
 21
-1.2273948192596436
 31
1.197602391242981
 12
0.1344994753599167
 22
-1.2239991426467896
 32
1.1409518718719482
 13
0.1344994753599167
 23
-1.2239991426467896
 33
1.1409518718719482
  0
3DFACE
  8
0
 10
0.02830786257982254
 20
-1.2239991426467896
 30
1.1409518718719482
 11
0.02538846991956234
 21
-1.2273948192596436
 31
1.197602391242981
 12
0.0
 22
-1.2273948192596436
 32
1.197602391242981
 13
0.0
 23
-1.2273948192596436
 33
1.197602391242981
  0
3DFACE
  8
0
 10
0.02830786257982254
 20
-1.2239991426467896
 30
1.1409518718719482
 11
0.0
 21
-1.2273948192596436
 31
1.197602391242981
 12
0.0
 22
-1.2239991426467896
 32
1.1409518718719482
 13
0.0
 23
-1.2239991426467896
 33
1.1409518718719482
  0
3DFACE
  8
0
 10
0.38327208161354065
 20
-0.39577123522758484
 30
1.1060266494750977
 11
0.5324175357818604
 21
-0.48102661967277527
 31
1.4485145807266235
 12
0.4395367205142975
 22
-0.8799680471420288
 32
1.2988351583480835
 13
0.4395367205142975
 23
-0.8799680471420288
 33
1.2988351583480835
  0
3DFACE
  8
0
 10
0.38327208161354065
 20
-0.39577123522758484
 30
1.1060266494750977
 11
0.4395367205142975
 21
-0.8799680471420288
 31
1.2988351583480835
 12
0.3205978572368622
 22
-0.7751877903938293
 32
1.1156444549560547
 13
0.3205978572368622
 23
-0.7751877903938293
 33
1.1156444549560547
  0
3DFACE
  8
0
 10
0.33293673396110535
 20
-0.3301931321620941
 30
1.1465121507644653
 11
0.5363131165504456
 21
-0.378202885389328
 31
1.4947099685668945
 12
0.5324175357818604
 22
-0.48102661967277527
 32
1.4485145807266235
 13
0.5324175357818604
 23
-0.48102661967277527
 33
1.4485145807266235
  0
3DFACE
  8
0
 10
0.33293673396110535
 20
-0.3301931321620941
 30
1.1465121507644653
 11
0.5324175357818604
 21
-0.48102661967277527
 31
1.4485145807266235
 12
0.38327208161354065
 22
-0.39577123522758484
 32
1.1060266494750977
 13
0.38327208161354065
 23
-0.39577123522758484
 33
1.1060266494750977
  0
3DFACE
  8
0
 10
0.2860390543937683
 20
-0.040512681007385254
 30
1.2668812274932861
 11
0.2391413450241089
 21
0.2491677701473236
 31
1.3872504234313965
 12
0.3524448573589325
 22
0.3272078037261963
 32
1.7172234058380127
 13
0.3524448573589325
 23
0.3272078037261963
 33
1.7172234058380127
  0
3DFACE
  8
0
 10
0.3524448573589325
 20
0.3272078037261963
 30
1.7172234058380127
 11
0.5363131165504456
 21
-0.378202885389328
 31
1.4947099685668945
 12
0.33293673396110535
 22
-0.3301931321620941
 32
1.1465121507644653
 13
0.33293673396110535
 23
-0.3301931321620941
 33
1.1465121507644653
  0
3DFACE
  8
0
 10
0.3524448573589325
 20
0.3272078037261963
 30
1.7172234058380127
 11
0.33293673396110535
 21
-0.3301931321620941
 31
1.1465121507644653
 12
0.2860390543937683
 22
-0.040512681007385254
 32
1.2668812274932861
 13
0.2860390543937683
 23
-0.040512681007385254
 33
1.2668812274932861
  0
3DFACE
  8
0
 10
0.05033170059323311
 20
0.2491677701473236
 30
1.3872504234313965
 11
0.07417850941419601
 21
0.3272078037261963
 31
1.7172234058380127
 12
0.3524448573589325
 22
0.3272078037261963
 32
1.7172234058380127
 13
0.3524448573589325
 23
0.3272078037261963
 33
1.7172234058380127
  0
3DFACE
  8
0
 10
0.05033170059323311
 20
0.2491677701473236
 30
1.3872504234313965
 11
0.3524448573589325
 21
0.3272078037261963
 31
1.7172234058380127
 12
0.2391413450241089
 22
0.2491677701473236
 32
1.3872504234313965
 13
0.2391413450241089
 23
0.2491677701473236
 33
1.3872504234313965
  0
3DFACE
  8
0
 10
0.10651222616434097
 20
0.6976760029792786
 30
0.33175721764564514
 11
0.11592549830675125
 21
0.714964747428894
 31
0.4135206937789917
 12
0.5507975816726685
 22
0.7144336104393005
 32
0.40625542402267456
 13
0.5507975816726685
 23
0.7144336104393005
 33
0.40625542402267456
  0
3DFACE
  8
0
 10
0.10651222616434097
 20
0.6976760029792786
 30
0.33175721764564514
 11
0.5507975816726685
 21
0.7144336104393005
 31
0.40625542402267456
 12
0.5060722231864929
 22
0.6972576379776001
 32
0.32603520154953003
 13
0.5060722231864929
 23
0.6972576379776001
 33
0.32603520154953003
  0
3DFACE
  8
0
 10
0.498543381690979
 20
-0.46251586079597473
 30
0.3057636618614197
 11
0.5060722231864929
 21
0.6972576379776001
 31
0.32603520154953003
 12
0.5507975816726685
 22
0.7144336104393005
 32
0.40625542402267456
 13
0.5507975816726685
 23
0.7144336104393005
 33
0.40625542402267456
  0
3DFACE
  8
0
 10
0.10492763668298721
 20
-0.46272772550582886
 30
0.302865207195282
 11
0.11391352862119675
 21
-0.5389152765274048
 31
0.3768364489078522
 12
0.0
 22
-0.5389870405197144
 32
0.375855416059494
 13
0.0
 23
-0.5389870405197144
 33
0.375855416059494
  0
3DFACE
  8
0
 10
0.10492763668298721
 20
-0.46272772550582886
 30
0.302865207195282
 11
0.0
 21
-0.5389870405197144
 31
0.375855416059494
 12
0.0
 22
-0.4627842307090759
 32
0.3020925521850586
 13
0.0
 23
-0.4627842307090759
 33
0.3020925521850586
  0
3DFACE
  8
0
 10
0.09243340790271759
 20
-0.35679471492767334
 30
0.20001377165317535
 11
0.10492763668298721
 21
-0.46272772550582886
 31
0.302865207195282
 12
0.0
 22
-0.4627842307090759
 32
0.3020925521850586
 13
0.0
 23
-0.4627842307090759
 33
0.3020925521850586
  0
3DFACE
  8
0
 10
0.09243340790271759
 20
-0.35679471492767334
 30
0.20001377165317535
 11
0.0
 21
-0.4627842307090759
 31
0.3020925521850586
 12
0.0
 22
-0.35683000087738037
 32
0.19953086972236633
 13
0.0
 23
-0.35683000087738037
 33
0.19953086972236633
  0
3DFACE
  8
0
 10
0.4438849985599518
 20
0.6733759045600891
 30
0.21449503302574158
 11
0.5060722231864929
 21
0.6972576379776001
 31
0.32603520154953003
 12
0.498543381690979
 22
-0.46251586079597473
 32
0.3057636618614197
 13
0.498543381690979
 23
-0.46251586079597473
 33
0.3057636618614197
  0
3DFACE
  8
0
 10
0.4438849985599518
 20
0.6733759045600891
 30
0.21449503302574158
 11
0.498543381690979
 21
-0.46251586079597473
 31
0.3057636618614197
 12
0.4391794800758362
 22
-0.3566622734069824
 32
0.2018253058195114
 13
0.4391794800758362
 23
-0.3566622734069824
 33
0.2018253058195114
  0
3DFACE
  8
0
 10
0.0934237614274025
 20
0.673637330532074
 30
0.21807128190994263
 11
0.10651222616434097
 21
0.6976760029792786
 31
0.33175721764564514
 12
0.5060722231864929
 22
0.6972576379776001
 32
0.32603520154953003
 13
0.5060722231864929
 23
0.6972576379776001
 33
0.32603520154953003
  0
3DFACE
  8
0
 10
0.0934237614274025
 20
0.673637330532074
 30
0.21807128190994263
 11
0.5060722231864929
 21
0.6972576379776001
 31
0.32603520154953003
 12
0.4438849985599518
 22
0.6733759045600891
 32
0.21449503302574158
 13
0.4438849985599518
 23
0.6733759045600891
 33
0.21449503302574158
  0
3DFACE
  8
0
 10
0.6080514788627625
 20
0.7364208102226257
 30
0.5089470744132996
 11
0.6060943007469177
 21
0.5154817700386047
 31
0.5036771893501282
 12
0.5507975816726685
 22
0.7144336104393005
 32
0.40625542402267456
 13
0.5507975816726685
 23
0.7144336104393005
 33
0.40625542402267456
  0
3DFACE
  8
0
 10
0.5459633469581604
 20
0.1970071643590927
 30
0.6878551244735718
 11
0.5307801365852356
 21
-0.29382389783859253
 31
0.7174232006072998
 12
0.6002678871154785
 22
-0.14222215116024017
 32
0.4879895746707916
 13
0.6002678871154785
 23
-0.14222215116024017
 33
0.4879895746707916
  0
3DFACE
  8
0
 10
0.6002678871154785
 20
-0.14222215116024017
 30
0.4879895746707916
 11
0.5307801365852356
 21
-0.29382389783859253
 31
0.7174232006072998
 12
0.5958927869796753
 22
-0.6361024379730225
 32
0.47620949149131775
 13
0.5958927869796753
 23
-0.6361024379730225
 33
0.47620949149131775
  0
3DFACE
  8
0
 10
0.6002678871154785
 20
-0.14222215116024017
 30
0.4879895746707916
 11
0.5958927869796753
 21
-0.6361024379730225
 31
0.47620949149131775
 12
0.5412381887435913
 22
-0.5386462807655334
 32
0.3805166184902191
 13
0.5412381887435913
 23
-0.5386462807655334
 33
0.3805166184902191
  0
3DFACE
  8
0
 10
0.6002678871154785
 20
-0.14222215116024017
 30
0.4879895746707916
 11
0.5412381887435913
 21
-0.5386462807655334
 31
0.3805166184902191
 12
0.498543381690979
 22
-0.46251586079597473
 32
0.3057636618614197
 13
0.498543381690979
 23
-0.46251586079597473
 33
0.3057636618614197
  0
3DFACE
  8
0
 10
0.34023958444595337
 20
0.6335728168487549
 30
0.02859470248222351
 11
0.4438849985599518
 21
0.6733759045600891
 31
0.21449503302574158
 12
0.4391794800758362
 22
-0.3566622734069824
 32
0.2018253058195114
 13
0.4391794800758362
 23
-0.3566622734069824
 33
0.2018253058195114
  0
3DFACE
  8
0
 10
0.34023958444595337
 20
0.6335728168487549
 30
0.02859470248222351
 11
0.4391794800758362
 21
-0.3566622734069824
 31
0.2018253058195114
 12
0.34023958444595337
 22
-0.18023960292339325
 32
0.02859470248222351
 13
0.34023958444595337
 23
-0.18023960292339325
 33
0.02859470248222351
  0
3DFACE
  8
0
 10
0.07160968333482742
 20
-0.18023960292339325
 30
0.02859470248222351
 11
0.09243340790271759
 21
-0.35679471492767334
 31
0.20001377165317535
 12
0.0
 22
-0.35683000087738037
 32
0.19953086972236633
 13
0.0
 23
-0.35683000087738037
 33
0.19953086972236633
  0
3DFACE
  8
0
 10
0.07160968333482742
 20
-0.18023960292339325
 30
0.02859470248222351
 11
0.0
 21
-0.35683000087738037
 31
0.19953086972236633
 12
0.0
 22
-0.18023960292339325
 32
0.02859470248222351
 13
0.0
 23
-0.18023960292339325
 33
0.02859470248222351
  0
3DFACE
  8
0
 10
0.34023958444595337
 20
-0.18023960292339325
 30
0.02859470248222351
 11
0.4391794800758362
 21
-0.3566622734069824
 31
0.2018253058195114
 12
0.09243340790271759
 22
-0.35679471492767334
 32
0.20001377165317535
 13
0.09243340790271759
 23
-0.35679471492767334
 33
0.20001377165317535
  0
3DFACE
  8
0
 10
0.34023958444595337
 20
-0.18023960292339325
 30
0.02859470248222351
 11
0.09243340790271759
 21
-0.35679471492767334
 31
0.20001377165317535
 12
0.07160968333482742
 22
-0.18023960292339325
 32
0.02859470248222351
 13
0.07160968333482742
 23
-0.18023960292339325
 33
0.02859470248222351
  0
3DFACE
  8
0
 10
0.4391794800758362
 20
-0.3566622734069824
 30
0.2018253058195114
 11
0.498543381690979
 21
-0.46251586079597473
 31
0.3057636618614197
 12
0.10492763668298721
 22
-0.46272772550582886
 32
0.302865207195282
 13
0.10492763668298721
 23
-0.46272772550582886
 33
0.302865207195282
  0
3DFACE
  8
0
 10
0.4391794800758362
 20
-0.3566622734069824
 30
0.2018253058195114
 11
0.10492763668298721
 21
-0.46272772550582886
 31
0.302865207195282
 12
0.09243340790271759
 22
-0.35679471492767334
 32
0.20001377165317535
 13
0.09243340790271759
 23
-0.35679471492767334
 33
0.20001377165317535
  0
3DFACE
  8
0
 10
0.498543381690979
 20
-0.46251586079597473
 30
0.3057636618614197
 11
0.5412381887435913
 21
-0.5386462807655334
 31
0.3805166184902191
 12
0.11391352862119675
 22
-0.5389152765274048
 32
0.3768364489078522
 13
0.11391352862119675
 23
-0.5389152765274048
 33
0.3768364489078522
  0
3DFACE
  8
0
 10
0.498543381690979
 20
-0.46251586079597473
 30
0.3057636618614197
 11
0.11391352862119675
 21
-0.5389152765274048
 31
0.3768364489078522
 12
0.10492763668298721
 22
-0.46272772550582886
 32
0.302865207195282
 13
0.10492763668298721
 23
-0.46272772550582886
 33
0.302865207195282
  0
3DFACE
  8
0
 10
0.0
 20
0.2491677701473236
 30
1.3872504234313965
 11
0.0
 21
0.3272078037261963
 31
1.7172234058380127
 12
0.07417850941419601
 22
0.3272078037261963
 32
1.7172234058380127
 13
0.07417850941419601
 23
0.3272078037261963
 33
1.7172234058380127
  0
3DFACE
  8
0
 10
0.0
 20
0.2491677701473236
 30
1.3872504234313965
 11
0.07417850941419601
 21
0.3272078037261963
 31
1.7172234058380127
 12
0.05033170059323311
 22
0.2491677701473236
 32
1.3872504234313965
 13
0.05033170059323311
 23
0.2491677701473236
 33
1.3872504234313965
  0
3DFACE
  8
0
 10
0.1344994753599167
 20
-1.2239991426467896
 30
1.1409518718719482
 11
0.12062855809926987
 21
-1.2273948192596436
 31
1.197602391242981
 12
0.02538846991956234
 22
-1.2273948192596436
 32
1.197602391242981
 13
0.02538846991956234
 23
-1.2273948192596436
 33
1.197602391242981
  0
3DFACE
  8
0
 10
0.1344994753599167
 20
-1.2239991426467896
 30
1.1409518718719482
 11
0.02538846991956234
 21
-1.2273948192596436
 31
1.197602391242981
 12
0.02830786257982254
 22
-1.2239991426467896
 32
1.1409518718719482
 13
0.02830786257982254
 23
-1.2239991426467896
 33
1.1409518718719482
  0
3DFACE
  8
0
 10
0.25838449597358704
 20
-0.9847483038902283
 30
1.4820258617401123
 11
0.05438175052404404
 21
-0.9847483038902283
 31
1.4820258617401123
 12
0.02246907912194729
 22
-1.230790376663208
 32
1.2542529106140137
 13
0.02246907912194729
 23
-1.230790376663208
 33
1.2542529106140137
  0
3DFACE
  8
0
 10
0.25838449597358704
 20
-0.9847483038902283
 30
1.4820258617401123
 11
0.02246907912194729
 21
-1.230790376663208
 31
1.2542529106140137
 12
0.10675763338804245
 22
-1.230790376663208
 32
1.2542529106140137
 13
0.10675763338804245
 23
-1.230790376663208
 33
1.2542529106140137
  0
3DFACE
  8
0
 10
0.0
 20
-0.7751877903938293
 30
1.1087318658828735
 11
0.06747569143772125
 21
-0.7751877903938293
 31
1.1101866960525513
 12
0.02830786257982254
 22
-1.2239991426467896
 32
1.1409518718719482
 13
0.02830786257982254
 23
-1.2239991426467896
 33
1.1409518718719482
  0
3DFACE
  8
0
 10
0.0
 20
-0.7751877903938293
 30
1.1087318658828735
 11
0.02830786257982254
 21
-1.2239991426467896
 31
1.1409518718719482
 12
0.0
 22
-1.2239991426467896
 32
1.1409518718719482
 13
0.0
 23
-1.2239991426467896
 33
1.1409518718719482
  0
3DFACE
  8
0
 10
0.12062855809926987
 20
-1.2273948192596436
 30
1.197602391242981
 11
0.10675763338804245
 21
-1.230790376663208
 31
1.2542529106140137
 12
0.02246907912194729
 22
-1.230790376663208
 32
1.2542529106140137
 13
0.02246907912194729
 23
-1.230790376663208
 33
1.2542529106140137
  0
3DFACE
  8
0
 10
0.12062855809926987
 20
-1.2273948192596436
 30
1.197602391242981
 11
0.02246907912194729
 21
-1.230790376663208
 31
1.2542529106140137
 12
0.02538846991956234
 22
-1.2273948192596436
 32
1.197602391242981
 13
0.02538846991956234
 23
-1.2273948192596436
 33
1.197602391242981
  0
3DFACE
  8
0
 10
0.0
 20
-0.39577123522758484
 30
1.1060266494750977
 11
0.0806666761636734
 21
-0.39577123522758484
 31
1.1060266494750977
 12
0.06747569143772125
 22
-0.7751877903938293
 32
1.1101866960525513
 13
0.06747569143772125
 23
-0.7751877903938293
 33
1.1101866960525513
  0
3DFACE
  8
0
 10
0.0
 20
-0.39577123522758484
 30
1.1060266494750977
 11
0.06747569143772125
 21
-0.7751877903938293
 31
1.1101866960525513
 12
0.0
 22
-0.7751877903938293
 32
1.1087318658828735
 13
0.0
 23
-0.7751877903938293
 33
1.1087318658828735
  0
3DFACE
  8
0
 10
0.0
 20
-0.3303453028202057
 30
1.1444306373596191
 11
0.07007266581058502
 21
-0.3303132951259613
 31
1.1448687314987183
 12
0.0806666761636734
 22
-0.39577123522758484
 32
1.1060266494750977
 13
0.0806666761636734
 23
-0.39577123522758484
 33
1.1060266494750977
  0
3DFACE
  8
0
 10
0.0
 20
-0.3303453028202057
 30
1.1444306373596191
 11
0.0806666761636734
 21
-0.39577123522758484
 31
1.1060266494750977
 12
0.0
 22
-0.39577123522758484
 32
1.1060266494750977
 13
0.0
 23
-0.39577123522758484
 33
1.1060266494750977
  0
3DFACE
  8
0
 10
0.3934105634689331
 20
-0.4565456211566925
 30
1.8395018577575684
 11
0.08280049264431
 21
-0.4565456211566925
 31
1.8395018577575684
 12
0.08028775453567505
 22
-0.5662819147109985
 32
1.7910023927688599
 13
0.08028775453567505
 23
-0.5662819147109985
 33
1.7910023927688599
  0
3DFACE
  8
0
 10
0.3934105634689331
 20
-0.4565456211566925
 30
1.8395018577575684
 11
0.08028775453567505
 21
-0.5662819147109985
 31
1.7910023927688599
 12
0.38147178292274475
 22
-0.5662819147109985
 32
1.7910023927688599
 13
0.38147178292274475
 23
-0.5662819147109985
 33
1.7910023927688599
  0
3DFACE
  8
0
 10
0.38147178292274475
 20
-0.5662819147109985
 30
1.7910023927688599
 11
0.08028775453567505
 21
-0.5662819147109985
 31
1.7910023927688599
 12
0.05438175052404404
 22
-0.9847483038902283
 32
1.4820258617401123
 13
0.05438175052404404
 23
-0.9847483038902283
 33
1.4820258617401123
  0
3DFACE
  8
0
 10
0.38147178292274475
 20
-0.5662819147109985
 30
1.7910023927688599
 11
0.05438175052404404
 21
-0.9847483038902283
 31
1.4820258617401123
 12
0.25838449597358704
 22
-0.9847483038902283
 32
1.4820258617401123
 13
0.25838449597358704
 23
-0.9847483038902283
 33
1.4820258617401123
  0
3DFACE
  8
0
 10
0.27451393008232117
 20
0.08787380903959274
 30
1.9616243839263916
 11
0.05777651071548462
 21
0.08787380903959274
 31
1.9616243839263916
 12
0.08280049264431
 22
-0.4565456211566925
 32
1.8395018577575684
 13
0.08280049264431
 23
-0.4565456211566925
 33
1.8395018577575684
  0
3DFACE
  8
0
 10
0.27451393008232117
 20
0.08787380903959274
 30
1.9616243839263916
 11
0.08280049264431
 21
-0.4565456211566925
 31
1.8395018577575684
 12
0.3934105634689331
 22
-0.4565456211566925
 32
1.8395018577575684
 13
0.3934105634689331
 23
-0.4565456211566925
 33
1.8395018577575684
  0
3DFACE
  8
0
 10
0.0
 20
-0.040588755160570145
 30
1.2658405303955078
 11
0.0
 21
0.2491677701473236
 31
1.3872504234313965
 12
0.05033170059323311
 22
0.2491677701473236
 32
1.3872504234313965
 13
0.05033170059323311
 23
0.2491677701473236
 33
1.3872504234313965
  0
3DFACE
  8
0
 10
0.0
 20
-0.040588755160570145
 30
1.2658405303955078
 11
0.05033170059323311
 21
0.2491677701473236
 31
1.3872504234313965
 12
0.06020217388868332
 22
-0.04057274013757706
 32
1.2660596370697021
 13
0.06020217388868332
 23
-0.04057274013757706
 33
1.2660596370697021
  0
3DFACE
  8
0
 10
0.0
 20
0.3272078037261963
 30
1.7172234058380127
 11
0.0
 21
0.08787380903959274
 31
1.9616243839263916
 12
0.05777651071548462
 22
0.08787380903959274
 32
1.9616243839263916
 13
0.05777651071548462
 23
0.08787380903959274
 33
1.9616243839263916
  0
3DFACE
  8
0
 10
0.0
 20
0.3272078037261963
 30
1.7172234058380127
 11
0.05777651071548462
 21
0.08787380903959274
 31
1.9616243839263916
 12
0.07417850941419601
 22
0.3272078037261963
 32
1.7172234058380127
 13
0.07417850941419601
 23
0.3272078037261963
 33
1.7172234058380127
  0
3DFACE
  8
0
 10
0.0
 20
0.6335728168487549
 30
0.02859470248222351
 11
0.0
 21
0.6737070083618164
 31
0.2190246284008026
 12
0.0934237614274025
 22
0.673637330532074
 32
0.21807128190994263
 13
0.0934237614274025
 23
0.673637330532074
 33
0.21807128190994263
  0
3DFACE
  8
0
 10
0.0
 20
0.6335728168487549
 30
0.02859470248222351
 11
0.0934237614274025
 21
0.673637330532074
 31
0.21807128190994263
 12
0.07160968333482742
 22
0.6335728168487549
 32
0.02859470248222351
 13
0.07160968333482742
 23
0.6335728168487549
 33
0.02859470248222351
  0
3DFACE
  8
0
 10
0.5958927869796753
 20
-0.6361024379730225
 30
0.47620949149131775
 11
0.4760807752609253
 21
-0.4997597336769104
 31
0.7932763695716858
 12
0.10019997507333755
 22
-0.5001385807991028
 32
0.7880954742431641
 13
0.10019997507333755
 23
-0.5001385807991028
 33
0.7880954742431641
  0
3DFACE
  8
0
 10
0.5958927869796753
 20
-0.6361024379730225
 30
0.47620949149131775
 11
0.10019997507333755
 21
-0.5001385807991028
 31
0.7880954742431641
 12
0.1254165917634964
 22
-0.636444628238678
 32
0.47152864933013916
 13
0.1254165917634964
 23
-0.636444628238678
 33
0.47152864933013916
  0
3DFACE
  8
0
 10
0.0
 20
-0.3551727831363678
 30
1.1031478643417358
 11
0.07357127219438553
 21
-0.3569079637527466
 31
1.095210075378418
 12
0.07007266581058502
 22
-0.3303132951259613
 32
1.1448687314987183
 13
0.07007266581058502
 23
-0.3303132951259613
 33
1.1448687314987183
  0
3DFACE
  8
0
 10
0.0
 20
-0.3551727831363678
 30
1.1031478643417358
 11
0.07007266581058502
 21
-0.3303132951259613
 31
1.1448687314987183
 12
0.0
 22
-0.3303453028202057
 32
1.1444306373596191
 13
0.0
 23
-0.3303453028202057
 33
1.1444306373596191
  0
3DFACE
  8
0
 10
0.5412381887435913
 20
-0.5386462807655334
 30
0.3805166184902191
 11
0.5958927869796753
 21
-0.6361024379730225
 31
0.47620949149131775
 12
0.1254165917634964
 22
-0.636444628238678
 32
0.47152864933013916
 13
0.1254165917634964
 23
-0.636444628238678
 33
0.47152864933013916
  0
3DFACE
  8
0
 10
0.5412381887435913
 20
-0.5386462807655334
 30
0.3805166184902191
 11
0.1254165917634964
 21
-0.636444628238678
 31
0.47152864933013916
 12
0.11391352862119675
 22
-0.5389152765274048
 32
0.3768364489078522
 13
0.11391352862119675
 23
-0.5389152765274048
 33
0.3768364489078522
  0
3DFACE
  8
0
 10
0.4760807752609253
 20
-0.4997597336769104
 30
0.7932763695716858
 11
0.3495596945285797
 21
-0.3634171783924103
 31
1.0654330253601074
 12
0.07357127219438553
 22
-0.3569079637527466
 32
1.095210075378418
 13
0.07357127219438553
 23
-0.3569079637527466
 33
1.095210075378418
  0
3DFACE
  8
0
 10
0.4760807752609253
 20
-0.4997597336769104
 30
0.7932763695716858
 11
0.07357127219438553
 21
-0.3569079637527466
 31
1.095210075378418
 12
0.10019997507333755
 22
-0.5001385807991028
 32
0.7880954742431641
 13
0.10019997507333755
 23
-0.5001385807991028
 33
0.7880954742431641
  0
3DFACE
  8
0
 10
0.48983311653137207
 20
0.7696382999420166
 30
0.7997725605964661
 11
0.10309439152479172
 21
0.7674812078475952
 31
0.7702714204788208
 12
0.06020217388868332
 22
-0.04057274013757706
 32
1.2660596370697021
 13
0.06020217388868332
 23
-0.04057274013757706
 33
1.2660596370697021
  0
3DFACE
  8
0
 10
0.48983311653137207
 20
0.7696382999420166
 30
0.7997725605964661
 11
0.06020217388868332
 21
-0.04057274013757706
 31
1.2660596370697021
 12
0.2860390543937683
 22
-0.040512681007385254
 32
1.2668812274932861
 13
0.2860390543937683
 23
-0.040512681007385254
 33
1.2668812274932861
  0
3DFACE
  8
0
 10
0.0
 20
0.6335728168487549
 30
0.02859470248222351
 11
0.07160968333482742
 21
0.6335728168487549
 31
0.02859470248222351
 12
0.07160968333482742
 22
-0.18023960292339325
 32
0.02859470248222351
 13
0.07160968333482742
 23
-0.18023960292339325
 33
0.02859470248222351
  0
3DFACE
  8
0
 10
0.0
 20
0.6335728168487549
 30
0.02859470248222351
 11
0.07160968333482742
 21
-0.18023960292339325
 31
0.02859470248222351
 12
0.0
 22
-0.18023960292339325
 32
0.02859470248222351
 13
0.0
 23
-0.18023960292339325
 33
0.02859470248222351
  0
3DFACE
  8
0
 10
0.0
 20
0.7520913481712341
 30
0.6415292024612427
 11
0.0
 21
0.7669061422348022
 31
0.7624071836471558
 12
0.10309439152479172
 22
0.7674812078475952
 32
0.7702714204788208
 13
0.10309439152479172
 23
0.7674812078475952
 33
0.7702714204788208
  0
3DFACE
  8
0
 10
0.0
 20
0.7520913481712341
 30
0.6415292024612427
 11
0.10309439152479172
 21
0.7674812078475952
 31
0.7702714204788208
 12
0.11852806061506271
 22
0.752288818359375
 32
0.6442296504974365
 13
0.11852806061506271
 23
0.752288818359375
 33
0.6442296504974365
  0
3DFACE
  8
0
 10
-0.11852806061506271
 20
0.752288818359375
 30
0.6442296504974365
 11
-0.5631632208824158
 21
0.7530295848846436
 31
0.6543598175048828
 12
-0.48983311653137207
 22
0.7696382999420166
 32
0.7997725605964661
 13
-0.48983311653137207
 23
0.7696382999420166
 33
0.7997725605964661
  0
3DFACE
  8
0
 10
-0.11852806061506271
 20
0.752288818359375
 30
0.6442296504974365
 11
-0.48983311653137207
 21
0.7696382999420166
 31
0.7997725605964661
 12
-0.10309439152479172
 22
0.7674812078475952
 32
0.7702714204788208
 13
-0.10309439152479172
 23
0.7674812078475952
 33
0.7702714204788208
  0
3DFACE
  8
0
 10
-0.4760807752609253
 20
-0.4997597336769104
 30
0.7932763695716858
 11
-0.3495596945285797
 21
-0.3634171783924103
 31
1.0654330253601074
 12
-0.5307801365852356
 22
-0.29382389783859253
 32
0.7174232006072998
 13
-0.5307801365852356
 23
-0.29382389783859253
 33
0.7174232006072998
  0
3DFACE
  8
0
 10
-0.07160968333482742
 20
0.6335728168487549
 30
0.02859470248222351
 11
-0.07160968333482742
 21
-0.18023960292339325
 31
0.02859470248222351
 12
-0.34023958444595337
 22
-0.18023960292339325
 32
0.02859470248222351
 13
-0.34023958444595337
 23
-0.18023960292339325
 33
0.02859470248222351
  0
3DFACE
  8
0
 10
-0.07160968333482742
 20
0.6335728168487549
 30
0.02859470248222351
 11
-0.34023958444595337
 21
-0.18023960292339325
 31
0.02859470248222351
 12
-0.34023958444595337
 22
0.6335728168487549
 32
0.02859470248222351
 13
-0.34023958444595337
 23
0.6335728168487549
 33
0.02859470248222351
  0
3DFACE
  8
0
 10
-0.10309439152479172
 20
0.7674812078475952
 30
0.7702714204788208
 11
-0.06020217388868332
 21
-0.04057274013757706
 31
1.2660596370697021
 12
0.0
 22
-0.040588755160570145
 32
1.2658405303955078
 13
0.0
 23
-0.040588755160570145
 33
1.2658405303955078
  0
3DFACE
  8
0
 10
-0.10309439152479172
 20
0.7674812078475952
 30
0.7702714204788208
 11
0.0
 21
-0.040588755160570145
 31
1.2658405303955078
 12
0.0
 22
0.7669061422348022
 32
0.7624071836471558
 13
0.0
 23
0.7669061422348022
 33
0.7624071836471558
  0
3DFACE
  8
0
 10
-0.10019997507333755
 20
-0.5001385807991028
 30
0.7880954742431641
 11
0.0
 21
-0.5002395510673523
 31
0.7867143750190735
 12
0.0
 22
-0.3551727831363678
 32
1.1031478643417358
 13
0.0
 23
-0.3551727831363678
 33
1.1031478643417358
  0
3DFACE
  8
0
 10
-0.10019997507333755
 20
-0.5001385807991028
 30
0.7880954742431641
 11
0.0
 21
-0.3551727831363678
 31
1.1031478643417358
 12
-0.07357127219438553
 22
-0.3569079637527466
 32
1.095210075378418
 13
-0.07357127219438553
 23
-0.3569079637527466
 33
1.095210075378418
  0
3DFACE
  8
0
 10
-0.11391352862119675
 20
-0.5389152765274048
 30
0.3768364489078522
 11
0.0
 21
-0.5389870405197144
 31
0.375855416059494
 12
0.0
 22
-0.6365358233451843
 32
0.47028085589408875
 13
0.0
 23
-0.6365358233451843
 33
0.47028085589408875
  0
3DFACE
  8
0
 10
-0.11391352862119675
 20
-0.5389152765274048
 30
0.3768364489078522
 11
0.0
 21
-0.6365358233451843
 31
0.47028085589408875
 12
-0.1254165917634964
 22
-0.636444628238678
 32
0.47152864933013916
 13
-0.1254165917634964
 23
-0.636444628238678
 33
0.47152864933013916
  0
3DFACE
  8
0
 10
-0.6080514788627625
 20
0.7364208102226257
 30
0.5089470744132996
 11
-0.5459633469581604
 21
0.1970071643590927
 31
0.6878551244735718
 12
-0.5631632208824158
 22
0.7530295848846436
 32
0.6543598175048828
 13
-0.5631632208824158
 23
0.7530295848846436
 33
0.6543598175048828
  0
3DFACE
  8
0
 10
-0.11592549830675125
 20
0.714964747428894
 30
0.4135206937789917
 11
-0.5507975816726685
 21
0.7144336104393005
 31
0.40625542402267456
 12
-0.6080514788627625
 22
0.7364208102226257
 32
0.5089470744132996
 13
-0.6080514788627625
 23
0.7364208102226257
 33
0.5089470744132996
  0
3DFACE
  8
0
 10
-0.11592549830675125
 20
0.714964747428894
 30
0.4135206937789917
 11
-0.6080514788627625
 21
0.7364208102226257
 31
0.5089470744132996
 12
-0.12797565758228302
 22
0.7370964288711548
 32
0.5181878805160522
 13
-0.12797565758228302
 23
0.7370964288711548
 33
0.5181878805160522
  0
3DFACE
  8
0
 10
-0.07357127219438553
 20
-0.3569079637527466
 30
1.095210075378418
 11
-0.07007266581058502
 21
-0.3303132951259613
 31
1.1448687314987183
 12
-0.33293673396110535
 22
-0.3301931321620941
 32
1.1465121507644653
 13
-0.33293673396110535
 23
-0.3301931321620941
 33
1.1465121507644653
  0
3DFACE
  8
0
 10
-0.07357127219438553
 20
-0.3569079637527466
 30
1.095210075378418
 11
-0.33293673396110535
 21
-0.3301931321620941
 31
1.1465121507644653
 12
-0.3495596945285797
 22
-0.3634171783924103
 32
1.0654330253601074
 13
-0.3495596945285797
 23
-0.3634171783924103
 33
1.0654330253601074
  0
3DFACE
  8
0
 10
-0.3495596945285797
 20
-0.3634171783924103
 30
1.0654330253601074
 11
-0.33293673396110535
 21
-0.3301931321620941
 31
1.1465121507644653
 12
-0.2860390543937683
 22
-0.040512681007385254
 32
1.2668812274932861
 13
-0.2860390543937683
 23
-0.040512681007385254
 33
1.2668812274932861
  0
3DFACE
  8
0
 10
-0.3495596945285797
 20
-0.3634171783924103
 30
1.0654330253601074
 11
-0.2860390543937683
 21
-0.040512681007385254
 31
1.2668812274932861
 12
-0.48983311653137207
 22
0.7696382999420166
 32
0.7997725605964661
 13
-0.48983311653137207
 23
0.7696382999420166
 33
0.7997725605964661
  0
3DFACE
  8
0
 10
-0.1254165917634964
 20
-0.636444628238678
 30
0.47152864933013916
 11
0.0
 21
-0.6365358233451843
 31
0.47028085589408875
 12
0.0
 22
-0.5002395510673523
 32
0.7867143750190735
 13
0.0
 23
-0.5002395510673523
 33
0.7867143750190735
  0
3DFACE
  8
0
 10
-0.1254165917634964
 20
-0.636444628238678
 30
0.47152864933013916
 11
0.0
 21
-0.5002395510673523
 31
0.7867143750190735
 12
-0.10019997507333755
 22
-0.5001385807991028
 32
0.7880954742431641
 13
-0.10019997507333755
 23
-0.5001385807991028
 33
0.7880954742431641
  0
3DFACE
  8
0
 10
-0.12797565758228302
 20
0.7370964288711548
 30
0.5181878805160522
 11
-0.6080514788627625
 21
0.7364208102226257
 31
0.5089470744132996
 12
-0.5631632208824158
 22
0.7530295848846436
 32
0.6543598175048828
 13
-0.5631632208824158
 23
0.7530295848846436
 33
0.6543598175048828
  0
3DFACE
  8
0
 10
-0.12797565758228302
 20
0.7370964288711548
 30
0.5181878805160522
 11
-0.5631632208824158
 21
0.7530295848846436
 31
0.6543598175048828
 12
-0.11852806061506271
 22
0.752288818359375
 32
0.6442296504974365
 13
-0.11852806061506271
 23
0.752288818359375
 33
0.6442296504974365
  0
3DFACE
  8
0
 10
-0.5307801365852356
 20
-0.29382389783859253
 30
0.7174232006072998
 11
-0.3495596945285797
 21
-0.3634171783924103
 31
1.0654330253601074
 12
-0.48983311653137207
 22
0.7696382999420166
 32
0.7997725605964661
 13
-0.48983311653137207
 23
0.7696382999420166
 33
0.7997725605964661
  0
3DFACE
  8
0
 10
-0.48983311653137207
 20
0.7696382999420166
 30
0.7997725605964661
 11
-0.5631632208824158
 21
0.7530295848846436
 31
0.6543598175048828
 12
-0.5459633469581604
 22
0.1970071643590927
 32
0.6878551244735718
 13
-0.5459633469581604
 23
0.1970071643590927
 33
0.6878551244735718
  0
3DFACE
  8
0
 10
-0.48983311653137207
 20
0.7696382999420166
 30
0.7997725605964661
 11
-0.5459633469581604
 21
0.1970071643590927
 31
0.6878551244735718
 12
-0.5307801365852356
 22
-0.29382389783859253
 32
0.7174232006072998
 13
-0.5307801365852356
 23
-0.29382389783859253
 33
0.7174232006072998
  0
3DFACE
  8
0
 10
-0.6080514788627625
 20
0.7364208102226257
 30
0.5089470744132996
 11
-0.6060943007469177
 21
0.5154817700386047
 31
0.5036771893501282
 12
-0.5459633469581604
 22
0.1970071643590927
 32
0.6878551244735718
 13
-0.5459633469581604
 23
0.1970071643590927
 33
0.6878551244735718
  0
3DFACE
  8
0
 10
-0.5958927869796753
 20
-0.6361024379730225
 30
0.47620949149131775
 11
-0.4760807752609253
 21
-0.4997597336769104
 31
0.7932763695716858
 12
-0.5307801365852356
 22
-0.29382389783859253
 32
0.7174232006072998
 13
-0.5307801365852356
 23
-0.29382389783859253
 33
0.7174232006072998
  0
3DFACE
  8
0
 10
-0.528932511806488
 20
-0.4880342483520508
 30
0.0007201731204986572
 11
-0.528932511806488
 21
0.6452196836471558
 31
0.0007201731204986572
 12
-0.5507975816726685
 22
0.7144336104393005
 32
0.40625542402267456
 13
-0.5507975816726685
 23
0.7144336104393005
 33
0.40625542402267456
  0
3DFACE
  8
0
 10
-0.528932511806488
 20
-0.4880342483520508
 30
0.0007201731204986572
 11
-0.5507975816726685
 21
0.7144336104393005
 31
0.40625542402267456
 12
-0.498543381690979
 22
-0.46251586079597473
 32
0.3057636618614197
 13
-0.498543381690979
 23
-0.46251586079597473
 33
0.3057636618614197
  0
3DFACE
  8
0
 10
-0.528932511806488
 20
0.6452196836471558
 30
0.0007201731204986572
 11
-1.0459195375442505
 21
0.6452196836471558
 31
-0.001774817705154419
 12
-1.0409295558929443
 22
0.6452197432518005
 32
0.10353609919548035
 13
-1.0409295558929443
 23
0.6452197432518005
 33
0.10353609919548035
  0
3DFACE
  8
0
 10
-0.528932511806488
 20
0.6452196836471558
 30
0.0007201731204986572
 11
-1.0409295558929443
 21
0.6452197432518005
 31
0.10353609919548035
 12
-0.5507975816726685
 22
0.7144336104393005
 32
0.40625542402267456
 13
-0.5507975816726685
 23
0.7144336104393005
 33
0.40625542402267456
  0
3DFACE
  8
0
 10
-1.0459195375442505
 20
0.6452196836471558
 30
-0.001774817705154419
 11
-1.0459195375442505
 21
-0.4531041383743286
 31
-0.001774817705154419
 12
-1.0409295558929443
 22
-0.5129842758178711
 32
0.1234961450099945
 13
-1.0409295558929443
 23
-0.5129842758178711
 33
0.1234961450099945
  0
3DFACE
  8
0
 10
-1.0459195375442505
 20
0.6452196836471558
 30
-0.001774817705154419
 11
-1.0409295558929443
 21
-0.5129842758178711
 31
0.1234961450099945
 12
-1.0409295558929443
 22
0.6452197432518005
 32
0.10353609919548035
 13
-1.0409295558929443
 23
0.6452197432518005
 33
0.10353609919548035
  0
3DFACE
  8
0
 10
-1.0459195375442505
 20
-0.4531041383743286
 30
-0.001774817705154419
 11
-0.528932511806488
 21
-0.4880342483520508
 31
0.0007201731204986572
 12
-0.498543381690979
 22
-0.46251586079597473
 32
0.3057636618614197
 13
-0.498543381690979
 23
-0.46251586079597473
 33
0.3057636618614197
  0
3DFACE
  8
0
 10
-1.0459195375442505
 20
-0.4531041383743286
 30
-0.001774817705154419
 11
-0.498543381690979
 21
-0.46251586079597473
 31
0.3057636618614197
 12
-1.0409295558929443
 22
-0.5129842758178711
 32
0.1234961450099945
 13
-1.0409295558929443
 23
-0.5129842758178711
 33
0.1234961450099945
  0
3DFACE
  8
0
 10
-0.528932511806488
 20
0.6452196836471558
 30
0.0007201731204986572
 11
-0.528932511806488
 21
-0.4880342483520508
 31
0.0007201731204986572
 12
-1.0459195375442505
 22
-0.4531041383743286
 32
-0.001774817705154419
 13
-1.0459195375442505
 23
-0.4531041383743286
 33
-0.001774817705154419
  0
3DFACE
  8
0
 10
-0.528932511806488
 20
0.6452196836471558
 30
0.0007201731204986572
 11
-1.0459195375442505
 21
-0.4531041383743286
 31
-0.001774817705154419
 12
-1.0459195375442505
 22
0.6452196836471558
 32
-0.001774817705154419
 13
-1.0459195375442505
 23
0.6452196836471558
 33
-0.001774817705154419
  0
3DFACE
  8
0
 10
-1.0409295558929443
 20
-0.5129842758178711
 30
0.1234961450099945
 11
-1.027549147605896
 21
0.18186134099960327
 31
0.5345480442047119
 12
-1.0409295558929443
 22
0.6452197432518005
 32
0.10353609919548035
 13
-1.0409295558929443
 23
0.6452197432518005
 33
0.10353609919548035
  0
3DFACE
  8
0
 10
-1.0409295558929443
 20
-0.5129842758178711
 30
0.1234961450099945
 11
-0.498543381690979
 21
-0.46251586079597473
 31
0.3057636618614197
 12
-0.6002678871154785
 22
-0.14222215116024017
 32
0.4879895746707916
 13
-0.6002678871154785
 23
-0.14222215116024017
 33
0.4879895746707916
  0
3DFACE
  8
0
 10
-0.6002678871154785
 20
-0.14222215116024017
 30
0.4879895746707916
 11
-0.5459633469581604
 21
0.1970071643590927
 31
0.6878551244735718
 12
-1.027549147605896
 22
0.18186134099960327
 32
0.5345480442047119
 13
-1.027549147605896
 23
0.18186134099960327
 33
0.5345480442047119
  0
3DFACE
  8
0
 10
-0.6002678871154785
 20
-0.14222215116024017
 30
0.4879895746707916
 11
-1.027549147605896
 21
0.18186134099960327
 31
0.5345480442047119
 12
-1.0409295558929443
 22
-0.5129842758178711
 32
0.1234961450099945
 13
-1.0409295558929443
 23
-0.5129842758178711
 33
0.1234961450099945
  0
3DFACE
  8
0
 10
-0.5507975816726685
 20
0.7144336104393005
 30
0.40625542402267456
 11
-1.0409295558929443
 21
0.6452197432518005
 31
0.10353609919548035
 12
-1.027549147605896
 22
0.18186134099960327
 32
0.5345480442047119
 13
-1.027549147605896
 23
0.18186134099960327
 33
0.5345480442047119
  0
3DFACE
  8
0
 10
-1.027549147605896
 20
0.18186134099960327
 30
0.5345480442047119
 11
-0.5459633469581604
 21
0.1970071643590927
 31
0.6878551244735718
 12
-0.6060943007469177
 22
0.5154817700386047
 32
0.5036771893501282
 13
-0.6060943007469177
 23
0.5154817700386047
 33
0.5036771893501282
  0
3DFACE
  8
0
 10
-1.027549147605896
 20
0.18186134099960327
 30
0.5345480442047119
 11
-0.6060943007469177
 21
0.5154817700386047
 31
0.5036771893501282
 12
-0.5507975816726685
 22
0.7144336104393005
 32
0.40625542402267456
 13
-0.5507975816726685
 23
0.7144336104393005
 33
0.40625542402267456
  0
3DFACE
  8
0
 10
0.0
 20
1.7435870170593262
 30
1.2956688404083252
 11
-0.052735891193151474
 21
1.7435870170593262
 31
1.2956688404083252
 12
-0.052735891193151474
 22
1.6676970720291138
 32
1.3681968450546265
 13
-0.052735891193151474
 23
1.6676970720291138
 33
1.3681968450546265
  0
3DFACE
  8
0
 10
0.0
 20
1.7435870170593262
 30
1.2956688404083252
 11
-0.052735891193151474
 21
1.6676970720291138
 31
1.3681968450546265
 12
0.0
 22
1.6676970720291138
 32
1.3681968450546265
 13
0.0
 23
1.6676970720291138
 33
1.3681968450546265
  0
3DFACE
  8
0
 10
-0.052735891193151474
 20
1.7435870170593262
 30
1.2956688404083252
 11
-0.06405337154865265
 21
0.9566196799278259
 31
0.22097928822040558
 12
-0.0934237614274025
 22
0.673637330532074
 32
0.21807128190994263
 13
-0.0934237614274025
 23
0.673637330532074
 33
0.21807128190994263
  0
3DFACE
  8
0
 10
-0.0934237614274025
 20
0.673637330532074
 30
0.21807128190994263
 11
-0.10651222616434097
 21
0.6976760029792786
 31
0.33175721764564514
 12
-0.11592549830675125
 22
0.714964747428894
 32
0.4135206937789917
 13
-0.11592549830675125
 23
0.714964747428894
 33
0.4135206937789917
  0
3DFACE
  8
0
 10
-0.12797565758228302
 20
0.7370964288711548
 30
0.5181878805160522
 11
-0.11852806061506271
 21
0.752288818359375
 31
0.6442296504974365
 12
-0.052735891193151474
 22
1.6676970720291138
 32
1.3681968450546265
 13
-0.052735891193151474
 23
1.6676970720291138
 33
1.3681968450546265
  0
3DFACE
  8
0
 10
-0.052735891193151474
 20
1.7435870170593262
 30
1.2956688404083252
 11
-0.0934237614274025
 21
0.673637330532074
 31
0.21807128190994263
 12
-0.11592549830675125
 22
0.714964747428894
 32
0.4135206937789917
 13
-0.11592549830675125
 23
0.714964747428894
 33
0.4135206937789917
  0
3DFACE
  8
0
 10
-0.11592549830675125
 20
0.714964747428894
 30
0.4135206937789917
 11
-0.12797565758228302
 21
0.7370964288711548
 31
0.5181878805160522
 12
-0.052735891193151474
 22
1.6676970720291138
 32
1.3681968450546265
 13
-0.052735891193151474
 23
1.6676970720291138
 33
1.3681968450546265
  0
3DFACE
  8
0
 10
-0.11592549830675125
 20
0.714964747428894
 30
0.4135206937789917
 11
-0.052735891193151474
 21
1.6676970720291138
 31
1.3681968450546265
 12
-0.052735891193151474
 22
1.7435870170593262
 32
1.2956688404083252
 13
-0.052735891193151474
 23
1.7435870170593262
 33
1.2956688404083252
  0
3DFACE
  8
0
 10
-0.11852806061506271
 20
0.752288818359375
 30
0.6442296504974365
 11
0.0
 21
0.7520913481712341
 31
0.6415292024612427
 12
0.0
 22
1.6676970720291138
 32
1.3681968450546265
 13
0.0
 23
1.6676970720291138
 33
1.3681968450546265
  0
3DFACE
  8
0
 10
-0.11852806061506271
 20
0.752288818359375
 30
0.6442296504974365
 11
0.0
 21
1.6676970720291138
 31
1.3681968450546265
 12
-0.052735891193151474
 22
1.6676970720291138
 32
1.3681968450546265
 13
-0.052735891193151474
 23
1.6676970720291138
 33
1.3681968450546265
  0
3DFACE
  8
0
 10
-0.06405337154865265
 20
0.9566196799278259
 30
0.22097928822040558
 11
-0.052735891193151474
 21
1.7435870170593262
 31
1.2956688404083252
 12
0.0
 22
1.7435870170593262
 32
1.2956688404083252
 13
0.0
 23
1.7435870170593262
 33
1.2956688404083252
  0
3DFACE
  8
0
 10
-0.06405337154865265
 20
0.9566196799278259
 30
0.22097928822040558
 11
0.0
 21
1.7435870170593262
 31
1.2956688404083252
 12
0.0
 22
0.9566196799278259
 32
0.22097928822040558
 13
0.0
 23
0.9566196799278259
 33
0.22097928822040558
  0
3DFACE
  8
0
 10
-0.07160968333482742
 20
0.6335728168487549
 30
0.02859470248222351
 11
-0.34023958444595337
 21
0.6335728168487549
 31
0.02859470248222351
 12
-0.4438849985599518
 22
0.6733759045600891
 32
0.21449503302574158
 13
-0.4438849985599518
 23
0.6733759045600891
 33
0.21449503302574158
  0
3DFACE
  8
0
 10
-0.07160968333482742
 20
0.6335728168487549
 30
0.02859470248222351
 11
-0.4438849985599518
 21
0.6733759045600891
 31
0.21449503302574158
 12
-0.0934237614274025
 22
0.673637330532074
 32
0.21807128190994263
 13
-0.0934237614274025
 23
0.673637330532074
 33
0.21807128190994263
  0
3DFACE
  8
0
 10
-0.06405337154865265
 20
0.9566196799278259
 30
0.22097928822040558
 11
0.0
 21
0.9566196799278259
 31
0.22097928822040558
 12
0.0
 22
0.6737070083618164
 32
0.2190246284008026
 13
0.0
 23
0.6737070083618164
 33
0.2190246284008026
  0
3DFACE
  8
0
 10
-0.06405337154865265
 20
0.9566196799278259
 30
0.22097928822040558
 11
0.0
 21
0.6737070083618164
 31
0.2190246284008026
 12
-0.0934237614274025
 22
0.673637330532074
 32
0.21807128190994263
 13
-0.0934237614274025
 23
0.673637330532074
 33
0.21807128190994263
  0
3DFACE
  8
0
 10
-0.07417850941419601
 20
0.3272078037261963
 30
1.7172234058380127
 11
-0.3524448573589325
 21
0.3272078037261963
 31
1.7172234058380127
 12
-0.27451393008232117
 22
0.08787380903959274
 32
1.9616243839263916
 13
-0.27451393008232117
 23
0.08787380903959274
 33
1.9616243839263916
  0
3DFACE
  8
0
 10
-0.07417850941419601
 20
0.3272078037261963
 30
1.7172234058380127
 11
-0.27451393008232117
 21
0.08787380903959274
 31
1.9616243839263916
 12
-0.05777651071548462
 22
0.08787380903959274
 32
1.9616243839263916
 13
-0.05777651071548462
 23
0.08787380903959274
 33
1.9616243839263916
  0
3DFACE
  8
0
 10
-0.3524448573589325
 20
0.3272078037261963
 30
1.7172234058380127
 11
-0.5363131165504456
 21
-0.378202885389328
 31
1.4947099685668945
 12
-0.3934105634689331
 22
-0.4565456211566925
 32
1.8395018577575684
 13
-0.3934105634689331
 23
-0.4565456211566925
 33
1.8395018577575684
  0
3DFACE
  8
0
 10
-0.3524448573589325
 20
0.3272078037261963
 30
1.7172234058380127
 11
-0.3934105634689331
 21
-0.4565456211566925
 31
1.8395018577575684
 12
-0.27451393008232117
 22
0.08787380903959274
 32
1.9616243839263916
 13
-0.27451393008232117
 23
0.08787380903959274
 33
1.9616243839263916
  0
3DFACE
  8
0
 10
-0.06020217388868332
 20
-0.04057274013757706
 30
1.2660596370697021
 11
-0.2860390543937683
 21
-0.040512681007385254
 31
1.2668812274932861
 12
-0.2391413450241089
 22
0.2491677701473236
 32
1.3872504234313965
 13
-0.2391413450241089
 23
0.2491677701473236
 33
1.3872504234313965
  0
3DFACE
  8
0
 10
-0.06020217388868332
 20
-0.04057274013757706
 30
1.2660596370697021
 11
-0.2391413450241089
 21
0.2491677701473236
 31
1.3872504234313965
 12
-0.05033170059323311
 22
0.2491677701473236
 32
1.3872504234313965
 13
-0.05033170059323311
 23
0.2491677701473236
 33
1.3872504234313965
  0
3DFACE
  8
0
 10
-0.05777651071548462
 20
0.08787380903959274
 30
1.9616243839263916
 11
-0.08280049264431
 21
-0.4565456211566925
 31
1.8395018577575684
 12
0.0
 22
-0.4565456211566925
 32
1.8395018577575684
 13
0.0
 23
-0.4565456211566925
 33
1.8395018577575684
  0
3DFACE
  8
0
 10
-0.05777651071548462
 20
0.08787380903959274
 30
1.9616243839263916
 11
0.0
 21
-0.4565456211566925
 31
1.8395018577575684
 12
0.0
 22
0.08787380903959274
 32
1.9616243839263916
 13
0.0
 23
0.08787380903959274
 33
1.9616243839263916
  0
3DFACE
  8
0
 10
-0.08028775453567505
 20
-0.5662819147109985
 30
1.7910023927688599
 11
-0.05438175052404404
 21
-0.9847483038902283
 31
1.4820258617401123
 12
0.0
 22
-0.9847483038902283
 32
1.4820258617401123
 13
0.0
 23
-0.9847483038902283
 33
1.4820258617401123
  0
3DFACE
  8
0
 10
-0.08028775453567505
 20
-0.5662819147109985
 30
1.7910023927688599
 11
0.0
 21
-0.9847483038902283
 31
1.4820258617401123
 12
0.0
 22
-0.5662819147109985
 32
1.7910023927688599
 13
0.0
 23
-0.5662819147109985
 33
1.7910023927688599
  0
3DFACE
  8
0
 10
-0.5363131165504456
 20
-0.378202885389328
 30
1.4947099685668945
 11
-0.5324175357818604
 21
-0.48102661967277527
 31
1.4485145807266235
 12
-0.38147178292274475
 22
-0.5662819147109985
 32
1.7910023927688599
 13
-0.38147178292274475
 23
-0.5662819147109985
 33
1.7910023927688599
  0
3DFACE
  8
0
 10
-0.5363131165504456
 20
-0.378202885389328
 30
1.4947099685668945
 11
-0.38147178292274475
 21
-0.5662819147109985
 31
1.7910023927688599
 12
-0.3934105634689331
 22
-0.4565456211566925
 32
1.8395018577575684
 13
-0.3934105634689331
 23
-0.4565456211566925
 33
1.8395018577575684
  0
3DFACE
  8
0
 10
-0.08280049264431
 20
-0.4565456211566925
 30
1.8395018577575684
 11
-0.08028775453567505
 21
-0.5662819147109985
 31
1.7910023927688599
 12
0.0
 22
-0.5662819147109985
 32
1.7910023927688599
 13
0.0
 23
-0.5662819147109985
 33
1.7910023927688599
  0
3DFACE
  8
0
 10
-0.08280049264431
 20
-0.4565456211566925
 30
1.8395018577575684
 11
0.0
 21
-0.5662819147109985
 31
1.7910023927688599
 12
0.0
 22
-0.4565456211566925
 32
1.8395018577575684
 13
0.0
 23
-0.4565456211566925
 33
1.8395018577575684
  0
3DFACE
  8
0
 10
-0.07007266581058502
 20
-0.3303132951259613
 30
1.1448687314987183
 11
-0.0806666761636734
 21
-0.39577123522758484
 31
1.1060266494750977
 12
-0.38327208161354065
 22
-0.39577123522758484
 32
1.1060266494750977
 13
-0.38327208161354065
 23
-0.39577123522758484
 33
1.1060266494750977
  0
3DFACE
  8
0
 10
-0.07007266581058502
 20
-0.3303132951259613
 30
1.1448687314987183
 11
-0.38327208161354065
 21
-0.39577123522758484
 31
1.1060266494750977
 12
-0.33293673396110535
 22
-0.3301931321620941
 32
1.1465121507644653
 13
-0.33293673396110535
 23
-0.3301931321620941
 33
1.1465121507644653
  0
3DFACE
  8
0
 10
-0.5324175357818604
 20
-0.48102661967277527
 30
1.4485145807266235
 11
-0.4395367205142975
 21
-0.8799680471420288
 31
1.2988351583480835
 12
-0.25838449597358704
 22
-0.9847483038902283
 32
1.4820258617401123
 13
-0.25838449597358704
 23
-0.9847483038902283
 33
1.4820258617401123
  0
3DFACE
  8
0
 10
-0.5324175357818604
 20
-0.48102661967277527
 30
1.4485145807266235
 11
-0.25838449597358704
 21
-0.9847483038902283
 31
1.4820258617401123
 12
-0.38147178292274475
 22
-0.5662819147109985
 32
1.7910023927688599
 13
-0.38147178292274475
 23
-0.5662819147109985
 33
1.7910023927688599
  0
3DFACE
  8
0
 10
-0.0806666761636734
 20
-0.39577123522758484
 30
1.1060266494750977
 11
-0.06747569143772125
 21
-0.7751877903938293
 31
1.1101866960525513
 12
-0.3205978572368622
 22
-0.7751877903938293
 32
1.1156444549560547
 13
-0.3205978572368622
 23
-0.7751877903938293
 33
1.1156444549560547
  0
3DFACE
  8
0
 10
-0.0806666761636734
 20
-0.39577123522758484
 30
1.1060266494750977
 11
-0.3205978572368622
 21
-0.7751877903938293
 31
1.1156444549560547
 12
-0.38327208161354065
 22
-0.39577123522758484
 32
1.1060266494750977
 13
-0.38327208161354065
 23
-0.39577123522758484
 33
1.1060266494750977
  0
3DFACE
  8
0
 10
-0.02538846991956234
 20
-1.2273948192596436
 30
1.197602391242981
 11
0.0
 21
-1.2273948192596436
 31
1.197602391242981
 12
0.0
 22
-1.230790376663208
 32
1.2542529106140137
 13
0.0
 23
-1.230790376663208
 33
1.2542529106140137
  0
3DFACE
  8
0
 10
-0.02538846991956234
 20
-1.2273948192596436
 30
1.197602391242981
 11
0.0
 21
-1.230790376663208
 31
1.2542529106140137
 12
-0.02246907912194729
 22
-1.230790376663208
 32
1.2542529106140137
 13
-0.02246907912194729
 23
-1.230790376663208
 33
1.2542529106140137
  0
3DFACE
  8
0
 10
-0.06747569143772125
 20
-0.7751877903938293
 30
1.1101866960525513
 11
-0.02830786257982254
 21
-1.2239991426467896
 31
1.1409518718719482
 12
-0.1344994753599167
 22
-1.2239991426467896
 32
1.1409518718719482
 13
-0.1344994753599167
 23
-1.2239991426467896
 33
1.1409518718719482
  0
3DFACE
  8
0
 10
-0.06747569143772125
 20
-0.7751877903938293
 30
1.1101866960525513
 11
-0.1344994753599167
 21
-1.2239991426467896
 31
1.1409518718719482
 12
-0.3205978572368622
 22
-0.7751877903938293
 32
1.1156444549560547
 13
-0.3205978572368622
 23
-0.7751877903938293
 33
1.1156444549560547
  0
3DFACE
  8
0
 10
-0.05438175052404404
 20
-0.9847483038902283
 30
1.4820258617401123
 11
-0.02246907912194729
 21
-1.230790376663208
 31
1.2542529106140137
 12
0.0
 22
-1.230790376663208
 32
1.2542529106140137
 13
0.0
 23
-1.230790376663208
 33
1.2542529106140137
  0
3DFACE
  8
0
 10
-0.05438175052404404
 20
-0.9847483038902283
 30
1.4820258617401123
 11
0.0
 21
-1.230790376663208
 31
1.2542529106140137
 12
0.0
 22
-0.9847483038902283
 32
1.4820258617401123
 13
0.0
 23
-0.9847483038902283
 33
1.4820258617401123
  0
3DFACE
  8
0
 10
-0.4395367205142975
 20
-0.8799680471420288
 30
1.2988351583480835
 11
-0.12062855809926987
 21
-1.2273948192596436
 31
1.197602391242981
 12
-0.10675763338804245
 22
-1.230790376663208
 32
1.2542529106140137
 13
-0.10675763338804245
 23
-1.230790376663208
 33
1.2542529106140137
  0
3DFACE
  8
0
 10
-0.4395367205142975
 20
-0.8799680471420288
 30
1.2988351583480835
 11
-0.10675763338804245
 21
-1.230790376663208
 31
1.2542529106140137
 12
-0.25838449597358704
 22
-0.9847483038902283
 32
1.4820258617401123
 13
-0.25838449597358704
 23
-0.9847483038902283
 33
1.4820258617401123
  0
3DFACE
  8
0
 10
-0.3205978572368622
 20
-0.7751877903938293
 30
1.1156444549560547
 11
-0.1344994753599167
 21
-1.2239991426467896
 31
1.1409518718719482
 12
-0.12062855809926987
 22
-1.2273948192596436
 32
1.197602391242981
 13
-0.12062855809926987
 23
-1.2273948192596436
 33
1.197602391242981
  0
3DFACE
  8
0
 10
-0.3205978572368622
 20
-0.7751877903938293
 30
1.1156444549560547
 11
-0.12062855809926987
 21
-1.2273948192596436
 31
1.197602391242981
 12
-0.4395367205142975
 22
-0.8799680471420288
 32
1.2988351583480835
 13
-0.4395367205142975
 23
-0.8799680471420288
 33
1.2988351583480835
  0
3DFACE
  8
0
 10
-0.02830786257982254
 20
-1.2239991426467896
 30
1.1409518718719482
 11
0.0
 21
-1.2239991426467896
 31
1.1409518718719482
 12
0.0
 22
-1.2273948192596436
 32
1.197602391242981
 13
0.0
 23
-1.2273948192596436
 33
1.197602391242981
  0
3DFACE
  8
0
 10
-0.02830786257982254
 20
-1.2239991426467896
 30
1.1409518718719482
 11
0.0
 21
-1.2273948192596436
 31
1.197602391242981
 12
-0.02538846991956234
 22
-1.2273948192596436
 32
1.197602391242981
 13
-0.02538846991956234
 23
-1.2273948192596436
 33
1.197602391242981
  0
3DFACE
  8
0
 10
-0.38327208161354065
 20
-0.39577123522758484
 30
1.1060266494750977
 11
-0.3205978572368622
 21
-0.7751877903938293
 31
1.1156444549560547
 12
-0.4395367205142975
 22
-0.8799680471420288
 32
1.2988351583480835
 13
-0.4395367205142975
 23
-0.8799680471420288
 33
1.2988351583480835
  0
3DFACE
  8
0
 10
-0.38327208161354065
 20
-0.39577123522758484
 30
1.1060266494750977
 11
-0.4395367205142975
 21
-0.8799680471420288
 31
1.2988351583480835
 12
-0.5324175357818604
 22
-0.48102661967277527
 32
1.4485145807266235
 13
-0.5324175357818604
 23
-0.48102661967277527
 33
1.4485145807266235
  0
3DFACE
  8
0
 10
-0.33293673396110535
 20
-0.3301931321620941
 30
1.1465121507644653
 11
-0.38327208161354065
 21
-0.39577123522758484
 31
1.1060266494750977
 12
-0.5324175357818604
 22
-0.48102661967277527
 32
1.4485145807266235
 13
-0.5324175357818604
 23
-0.48102661967277527
 33
1.4485145807266235
  0
3DFACE
  8
0
 10
-0.33293673396110535
 20
-0.3301931321620941
 30
1.1465121507644653
 11
-0.5324175357818604
 21
-0.48102661967277527
 31
1.4485145807266235
 12
-0.5363131165504456
 22
-0.378202885389328
 32
1.4947099685668945
 13
-0.5363131165504456
 23
-0.378202885389328
 33
1.4947099685668945
  0
3DFACE
  8
0
 10
-0.3524448573589325
 20
0.3272078037261963
 30
1.7172234058380127
 11
-0.2391413450241089
 21
0.2491677701473236
 31
1.3872504234313965
 12
-0.2860390543937683
 22
-0.040512681007385254
 32
1.2668812274932861
 13
-0.2860390543937683
 23
-0.040512681007385254
 33
1.2668812274932861
  0
3DFACE
  8
0
 10
-0.2860390543937683
 20
-0.040512681007385254
 30
1.2668812274932861
 11
-0.33293673396110535
 21
-0.3301931321620941
 31
1.1465121507644653
 12
-0.5363131165504456
 22
-0.378202885389328
 32
1.4947099685668945
 13
-0.5363131165504456
 23
-0.378202885389328
 33
1.4947099685668945
  0
3DFACE
  8
0
 10
-0.2860390543937683
 20
-0.040512681007385254
 30
1.2668812274932861
 11
-0.5363131165504456
 21
-0.378202885389328
 31
1.4947099685668945
 12
-0.3524448573589325
 22
0.3272078037261963
 32
1.7172234058380127
 13
-0.3524448573589325
 23
0.3272078037261963
 33
1.7172234058380127
  0
3DFACE
  8
0
 10
-0.05033170059323311
 20
0.2491677701473236
 30
1.3872504234313965
 11
-0.2391413450241089
 21
0.2491677701473236
 31
1.3872504234313965
 12
-0.3524448573589325
 22
0.3272078037261963
 32
1.7172234058380127
 13
-0.3524448573589325
 23
0.3272078037261963
 33
1.7172234058380127
  0
3DFACE
  8
0
 10
-0.05033170059323311
 20
0.2491677701473236
 30
1.3872504234313965
 11
-0.3524448573589325
 21
0.3272078037261963
 31
1.7172234058380127
 12
-0.07417850941419601
 22
0.3272078037261963
 32
1.7172234058380127
 13
-0.07417850941419601
 23
0.3272078037261963
 33
1.7172234058380127
  0
3DFACE
  8
0
 10
-0.10651222616434097
 20
0.6976760029792786
 30
0.33175721764564514
 11
-0.5060722231864929
 21
0.6972576379776001
 31
0.32603520154953003
 12
-0.5507975816726685
 22
0.7144336104393005
 32
0.40625542402267456
 13
-0.5507975816726685
 23
0.7144336104393005
 33
0.40625542402267456
  0
3DFACE
  8
0
 10
-0.10651222616434097
 20
0.6976760029792786
 30
0.33175721764564514
 11
-0.5507975816726685
 21
0.7144336104393005
 31
0.40625542402267456
 12
-0.11592549830675125
 22
0.714964747428894
 32
0.4135206937789917
 13
-0.11592549830675125
 23
0.714964747428894
 33
0.4135206937789917
  0
3DFACE
  8
0
 10
-0.498543381690979
 20
-0.46251586079597473
 30
0.3057636618614197
 11
-0.5507975816726685
 21
0.7144336104393005
 31
0.40625542402267456
 12
-0.5060722231864929
 22
0.6972576379776001
 32
0.32603520154953003
 13
-0.5060722231864929
 23
0.6972576379776001
 33
0.32603520154953003
  0
3DFACE
  8
0
 10
-0.10492763668298721
 20
-0.46272772550582886
 30
0.302865207195282
 11
0.0
 21
-0.4627842307090759
 31
0.3020925521850586
 12
0.0
 22
-0.5389870405197144
 32
0.375855416059494
 13
0.0
 23
-0.5389870405197144
 33
0.375855416059494
  0
3DFACE
  8
0
 10
-0.10492763668298721
 20
-0.46272772550582886
 30
0.302865207195282
 11
0.0
 21
-0.5389870405197144
 31
0.375855416059494
 12
-0.11391352862119675
 22
-0.5389152765274048
 32
0.3768364489078522
 13
-0.11391352862119675
 23
-0.5389152765274048
 33
0.3768364489078522
  0
3DFACE
  8
0
 10
-0.09243340790271759
 20
-0.35679471492767334
 30
0.20001377165317535
 11
0.0
 21
-0.35683000087738037
 31
0.19953086972236633
 12
0.0
 22
-0.4627842307090759
 32
0.3020925521850586
 13
0.0
 23
-0.4627842307090759
 33
0.3020925521850586
  0
3DFACE
  8
0
 10
-0.09243340790271759
 20
-0.35679471492767334
 30
0.20001377165317535
 11
0.0
 21
-0.4627842307090759
 31
0.3020925521850586
 12
-0.10492763668298721
 22
-0.46272772550582886
 32
0.302865207195282
 13
-0.10492763668298721
 23
-0.46272772550582886
 33
0.302865207195282
  0
3DFACE
  8
0
 10
-0.4438849985599518
 20
0.6733759045600891
 30
0.21449503302574158
 11
-0.4391794800758362
 21
-0.3566622734069824
 31
0.2018253058195114
 12
-0.498543381690979
 22
-0.46251586079597473
 32
0.3057636618614197
 13
-0.498543381690979
 23
-0.46251586079597473
 33
0.3057636618614197
  0
3DFACE
  8
0
 10
-0.4438849985599518
 20
0.6733759045600891
 30
0.21449503302574158
 11
-0.498543381690979
 21
-0.46251586079597473
 31
0.3057636618614197
 12
-0.5060722231864929
 22
0.6972576379776001
 32
0.32603520154953003
 13
-0.5060722231864929
 23
0.6972576379776001
 33
0.32603520154953003
  0
3DFACE
  8
0
 10
-0.0934237614274025
 20
0.673637330532074
 30
0.21807128190994263
 11
-0.4438849985599518
 21
0.6733759045600891
 31
0.21449503302574158
 12
-0.5060722231864929
 22
0.6972576379776001
 32
0.32603520154953003
 13
-0.5060722231864929
 23
0.6972576379776001
 33
0.32603520154953003
  0
3DFACE
  8
0
 10
-0.0934237614274025
 20
0.673637330532074
 30
0.21807128190994263
 11
-0.5060722231864929
 21
0.6972576379776001
 31
0.32603520154953003
 12
-0.10651222616434097
 22
0.6976760029792786
 32
0.33175721764564514
 13
-0.10651222616434097
 23
0.6976760029792786
 33
0.33175721764564514
  0
3DFACE
  8
0
 10
-0.6080514788627625
 20
0.7364208102226257
 30
0.5089470744132996
 11
-0.5507975816726685
 21
0.7144336104393005
 31
0.40625542402267456
 12
-0.6060943007469177
 22
0.5154817700386047
 32
0.5036771893501282
 13
-0.6060943007469177
 23
0.5154817700386047
 33
0.5036771893501282
  0
3DFACE
  8
0
 10
-0.5459633469581604
 20
0.1970071643590927
 30
0.6878551244735718
 11
-0.6002678871154785
 21
-0.14222215116024017
 31
0.4879895746707916
 12
-0.5307801365852356
 22
-0.29382389783859253
 32
0.7174232006072998
 13
-0.5307801365852356
 23
-0.29382389783859253
 33
0.7174232006072998
  0
3DFACE
  8
0
 10
-0.6002678871154785
 20
-0.14222215116024017
 30
0.4879895746707916
 11
-0.5958927869796753
 21
-0.6361024379730225
 31
0.47620949149131775
 12
-0.5307801365852356
 22
-0.29382389783859253
 32
0.7174232006072998
 13
-0.5307801365852356
 23
-0.29382389783859253
 33
0.7174232006072998
  0
3DFACE
  8
0
 10
-0.6002678871154785
 20
-0.14222215116024017
 30
0.4879895746707916
 11
-0.5412381887435913
 21
-0.5386462807655334
 31
0.3805166184902191
 12
-0.5958927869796753
 22
-0.6361024379730225
 32
0.47620949149131775
 13
-0.5958927869796753
 23
-0.6361024379730225
 33
0.47620949149131775
  0
3DFACE
  8
0
 10
-0.6002678871154785
 20
-0.14222215116024017
 30
0.4879895746707916
 11
-0.498543381690979
 21
-0.46251586079597473
 31
0.3057636618614197
 12
-0.5412381887435913
 22
-0.5386462807655334
 32
0.3805166184902191
 13
-0.5412381887435913
 23
-0.5386462807655334
 33
0.3805166184902191
  0
3DFACE
  8
0
 10
-0.34023958444595337
 20
0.6335728168487549
 30
0.02859470248222351
 11
-0.34023958444595337
 21
-0.18023960292339325
 31
0.02859470248222351
 12
-0.4391794800758362
 22
-0.3566622734069824
 32
0.2018253058195114
 13
-0.4391794800758362
 23
-0.3566622734069824
 33
0.2018253058195114
  0
3DFACE
  8
0
 10
-0.34023958444595337
 20
0.6335728168487549
 30
0.02859470248222351
 11
-0.4391794800758362
 21
-0.3566622734069824
 31
0.2018253058195114
 12
-0.4438849985599518
 22
0.6733759045600891
 32
0.21449503302574158
 13
-0.4438849985599518
 23
0.6733759045600891
 33
0.21449503302574158
  0
3DFACE
  8
0
 10
-0.07160968333482742
 20
-0.18023960292339325
 30
0.02859470248222351
 11
0.0
 21
-0.18023960292339325
 31
0.02859470248222351
 12
0.0
 22
-0.35683000087738037
 32
0.19953086972236633
 13
0.0
 23
-0.35683000087738037
 33
0.19953086972236633
  0
3DFACE
  8
0
 10
-0.07160968333482742
 20
-0.18023960292339325
 30
0.02859470248222351
 11
0.0
 21
-0.35683000087738037
 31
0.19953086972236633
 12
-0.09243340790271759
 22
-0.35679471492767334
 32
0.20001377165317535
 13
-0.09243340790271759
 23
-0.35679471492767334
 33
0.20001377165317535
  0
3DFACE
  8
0
 10
-0.34023958444595337
 20
-0.18023960292339325
 30
0.02859470248222351
 11
-0.07160968333482742
 21
-0.18023960292339325
 31
0.02859470248222351
 12
-0.09243340790271759
 22
-0.35679471492767334
 32
0.20001377165317535
 13
-0.09243340790271759
 23
-0.35679471492767334
 33
0.20001377165317535
  0
3DFACE
  8
0
 10
-0.34023958444595337
 20
-0.18023960292339325
 30
0.02859470248222351
 11
-0.09243340790271759
 21
-0.35679471492767334
 31
0.20001377165317535
 12
-0.4391794800758362
 22
-0.3566622734069824
 32
0.2018253058195114
 13
-0.4391794800758362
 23
-0.3566622734069824
 33
0.2018253058195114
  0
3DFACE
  8
0
 10
-0.4391794800758362
 20
-0.3566622734069824
 30
0.2018253058195114
 11
-0.09243340790271759
 21
-0.35679471492767334
 31
0.20001377165317535
 12
-0.10492763668298721
 22
-0.46272772550582886
 32
0.302865207195282
 13
-0.10492763668298721
 23
-0.46272772550582886
 33
0.302865207195282
  0
3DFACE
  8
0
 10
-0.4391794800758362
 20
-0.3566622734069824
 30
0.2018253058195114
 11
-0.10492763668298721
 21
-0.46272772550582886
 31
0.302865207195282
 12
-0.498543381690979
 22
-0.46251586079597473
 32
0.3057636618614197
 13
-0.498543381690979
 23
-0.46251586079597473
 33
0.3057636618614197
  0
3DFACE
  8
0
 10
-0.498543381690979
 20
-0.46251586079597473
 30
0.3057636618614197
 11
-0.10492763668298721
 21
-0.46272772550582886
 31
0.302865207195282
 12
-0.11391352862119675
 22
-0.5389152765274048
 32
0.3768364489078522
 13
-0.11391352862119675
 23
-0.5389152765274048
 33
0.3768364489078522
  0
3DFACE
  8
0
 10
-0.498543381690979
 20
-0.46251586079597473
 30
0.3057636618614197
 11
-0.11391352862119675
 21
-0.5389152765274048
 31
0.3768364489078522
 12
-0.5412381887435913
 22
-0.5386462807655334
 32
0.3805166184902191
 13
-0.5412381887435913
 23
-0.5386462807655334
 33
0.3805166184902191
  0
3DFACE
  8
0
 10
0.0
 20
0.2491677701473236
 30
1.3872504234313965
 11
-0.05033170059323311
 21
0.2491677701473236
 31
1.3872504234313965
 12
-0.07417850941419601
 22
0.3272078037261963
 32
1.7172234058380127
 13
-0.07417850941419601
 23
0.3272078037261963
 33
1.7172234058380127
  0
3DFACE
  8
0
 10
0.0
 20
0.2491677701473236
 30
1.3872504234313965
 11
-0.07417850941419601
 21
0.3272078037261963
 31
1.7172234058380127
 12
0.0
 22
0.3272078037261963
 32
1.7172234058380127
 13
0.0
 23
0.3272078037261963
 33
1.7172234058380127
  0
3DFACE
  8
0
 10
-0.1344994753599167
 20
-1.2239991426467896
 30
1.1409518718719482
 11
-0.02830786257982254
 21
-1.2239991426467896
 31
1.1409518718719482
 12
-0.02538846991956234
 22
-1.2273948192596436
 32
1.197602391242981
 13
-0.02538846991956234
 23
-1.2273948192596436
 33
1.197602391242981
  0
3DFACE
  8
0
 10
-0.1344994753599167
 20
-1.2239991426467896
 30
1.1409518718719482
 11
-0.02538846991956234
 21
-1.2273948192596436
 31
1.197602391242981
 12
-0.12062855809926987
 22
-1.2273948192596436
 32
1.197602391242981
 13
-0.12062855809926987
 23
-1.2273948192596436
 33
1.197602391242981
  0
3DFACE
  8
0
 10
-0.25838449597358704
 20
-0.9847483038902283
 30
1.4820258617401123
 11
-0.10675763338804245
 21
-1.230790376663208
 31
1.2542529106140137
 12
-0.02246907912194729
 22
-1.230790376663208
 32
1.2542529106140137
 13
-0.02246907912194729
 23
-1.230790376663208
 33
1.2542529106140137
  0
3DFACE
  8
0
 10
-0.25838449597358704
 20
-0.9847483038902283
 30
1.4820258617401123
 11
-0.02246907912194729
 21
-1.230790376663208
 31
1.2542529106140137
 12
-0.05438175052404404
 22
-0.9847483038902283
 32
1.4820258617401123
 13
-0.05438175052404404
 23
-0.9847483038902283
 33
1.4820258617401123
  0
3DFACE
  8
0
 10
0.0
 20
-0.7751877903938293
 30
1.1087318658828735
 11
0.0
 21
-1.2239991426467896
 31
1.1409518718719482
 12
-0.02830786257982254
 22
-1.2239991426467896
 32
1.1409518718719482
 13
-0.02830786257982254
 23
-1.2239991426467896
 33
1.1409518718719482
  0
3DFACE
  8
0
 10
0.0
 20
-0.7751877903938293
 30
1.1087318658828735
 11
-0.02830786257982254
 21
-1.2239991426467896
 31
1.1409518718719482
 12
-0.06747569143772125
 22
-0.7751877903938293
 32
1.1101866960525513
 13
-0.06747569143772125
 23
-0.7751877903938293
 33
1.1101866960525513
  0
3DFACE
  8
0
 10
-0.12062855809926987
 20
-1.2273948192596436
 30
1.197602391242981
 11
-0.02538846991956234
 21
-1.2273948192596436
 31
1.197602391242981
 12
-0.02246907912194729
 22
-1.230790376663208
 32
1.2542529106140137
 13
-0.02246907912194729
 23
-1.230790376663208
 33
1.2542529106140137
  0
3DFACE
  8
0
 10
-0.12062855809926987
 20
-1.2273948192596436
 30
1.197602391242981
 11
-0.02246907912194729
 21
-1.230790376663208
 31
1.2542529106140137
 12
-0.10675763338804245
 22
-1.230790376663208
 32
1.2542529106140137
 13
-0.10675763338804245
 23
-1.230790376663208
 33
1.2542529106140137
  0
3DFACE
  8
0
 10
0.0
 20
-0.39577123522758484
 30
1.1060266494750977
 11
0.0
 21
-0.7751877903938293
 31
1.1087318658828735
 12
-0.06747569143772125
 22
-0.7751877903938293
 32
1.1101866960525513
 13
-0.06747569143772125
 23
-0.7751877903938293
 33
1.1101866960525513
  0
3DFACE
  8
0
 10
0.0
 20
-0.39577123522758484
 30
1.1060266494750977
 11
-0.06747569143772125
 21
-0.7751877903938293
 31
1.1101866960525513
 12
-0.0806666761636734
 22
-0.39577123522758484
 32
1.1060266494750977
 13
-0.0806666761636734
 23
-0.39577123522758484
 33
1.1060266494750977
  0
3DFACE
  8
0
 10
0.0
 20
-0.3303453028202057
 30
1.1444306373596191
 11
0.0
 21
-0.39577123522758484
 31
1.1060266494750977
 12
-0.0806666761636734
 22
-0.39577123522758484
 32
1.1060266494750977
 13
-0.0806666761636734
 23
-0.39577123522758484
 33
1.1060266494750977
  0
3DFACE
  8
0
 10
0.0
 20
-0.3303453028202057
 30
1.1444306373596191
 11
-0.0806666761636734
 21
-0.39577123522758484
 31
1.1060266494750977
 12
-0.07007266581058502
 22
-0.3303132951259613
 32
1.1448687314987183
 13
-0.07007266581058502
 23
-0.3303132951259613
 33
1.1448687314987183
  0
3DFACE
  8
0
 10
-0.3934105634689331
 20
-0.4565456211566925
 30
1.8395018577575684
 11
-0.38147178292274475
 21
-0.5662819147109985
 31
1.7910023927688599
 12
-0.08028775453567505
 22
-0.5662819147109985
 32
1.7910023927688599
 13
-0.08028775453567505
 23
-0.5662819147109985
 33
1.7910023927688599
  0
3DFACE
  8
0
 10
-0.3934105634689331
 20
-0.4565456211566925
 30
1.8395018577575684
 11
-0.08028775453567505
 21
-0.5662819147109985
 31
1.7910023927688599
 12
-0.08280049264431
 22
-0.4565456211566925
 32
1.8395018577575684
 13
-0.08280049264431
 23
-0.4565456211566925
 33
1.8395018577575684
  0
3DFACE
  8
0
 10
-0.38147178292274475
 20
-0.5662819147109985
 30
1.7910023927688599
 11
-0.25838449597358704
 21
-0.9847483038902283
 31
1.4820258617401123
 12
-0.05438175052404404
 22
-0.9847483038902283
 32
1.4820258617401123
 13
-0.05438175052404404
 23
-0.9847483038902283
 33
1.4820258617401123
  0
3DFACE
  8
0
 10
-0.38147178292274475
 20
-0.5662819147109985
 30
1.7910023927688599
 11
-0.05438175052404404
 21
-0.9847483038902283
 31
1.4820258617401123
 12
-0.08028775453567505
 22
-0.5662819147109985
 32
1.7910023927688599
 13
-0.08028775453567505
 23
-0.5662819147109985
 33
1.7910023927688599
  0
3DFACE
  8
0
 10
-0.27451393008232117
 20
0.08787380903959274
 30
1.9616243839263916
 11
-0.3934105634689331
 21
-0.4565456211566925
 31
1.8395018577575684
 12
-0.08280049264431
 22
-0.4565456211566925
 32
1.8395018577575684
 13
-0.08280049264431
 23
-0.4565456211566925
 33
1.8395018577575684
  0
3DFACE
  8
0
 10
-0.27451393008232117
 20
0.08787380903959274
 30
1.9616243839263916
 11
-0.08280049264431
 21
-0.4565456211566925
 31
1.8395018577575684
 12
-0.05777651071548462
 22
0.08787380903959274
 32
1.9616243839263916
 13
-0.05777651071548462
 23
0.08787380903959274
 33
1.9616243839263916
  0
3DFACE
  8
0
 10
0.0
 20
-0.040588755160570145
 30
1.2658405303955078
 11
-0.06020217388868332
 21
-0.04057274013757706
 31
1.2660596370697021
 12
-0.05033170059323311
 22
0.2491677701473236
 32
1.3872504234313965
 13
-0.05033170059323311
 23
0.2491677701473236
 33
1.3872504234313965
  0
3DFACE
  8
0
 10
0.0
 20
-0.040588755160570145
 30
1.2658405303955078
 11
-0.05033170059323311
 21
0.2491677701473236
 31
1.3872504234313965
 12
0.0
 22
0.2491677701473236
 32
1.3872504234313965
 13
0.0
 23
0.2491677701473236
 33
1.3872504234313965
  0
3DFACE
  8
0
 10
0.0
 20
0.3272078037261963
 30
1.7172234058380127
 11
-0.07417850941419601
 21
0.3272078037261963
 31
1.7172234058380127
 12
-0.05777651071548462
 22
0.08787380903959274
 32
1.9616243839263916
 13
-0.05777651071548462
 23
0.08787380903959274
 33
1.9616243839263916
  0
3DFACE
  8
0
 10
0.0
 20
0.3272078037261963
 30
1.7172234058380127
 11
-0.05777651071548462
 21
0.08787380903959274
 31
1.9616243839263916
 12
0.0
 22
0.08787380903959274
 32
1.9616243839263916
 13
0.0
 23
0.08787380903959274
 33
1.9616243839263916
  0
3DFACE
  8
0
 10
0.0
 20
0.6335728168487549
 30
0.02859470248222351
 11
-0.07160968333482742
 21
0.6335728168487549
 31
0.02859470248222351
 12
-0.0934237614274025
 22
0.673637330532074
 32
0.21807128190994263
 13
-0.0934237614274025
 23
0.673637330532074
 33
0.21807128190994263
  0
3DFACE
  8
0
 10
0.0
 20
0.6335728168487549
 30
0.02859470248222351
 11
-0.0934237614274025
 21
0.673637330532074
 31
0.21807128190994263
 12
0.0
 22
0.6737070083618164
 32
0.2190246284008026
 13
0.0
 23
0.6737070083618164
 33
0.2190246284008026
  0
3DFACE
  8
0
 10
-0.5958927869796753
 20
-0.6361024379730225
 30
0.47620949149131775
 11
-0.1254165917634964
 21
-0.636444628238678
 31
0.47152864933013916
 12
-0.10019997507333755
 22
-0.5001385807991028
 32
0.7880954742431641
 13
-0.10019997507333755
 23
-0.5001385807991028
 33
0.7880954742431641
  0
3DFACE
  8
0
 10
-0.5958927869796753
 20
-0.6361024379730225
 30
0.47620949149131775
 11
-0.10019997507333755
 21
-0.5001385807991028
 31
0.7880954742431641
 12
-0.4760807752609253
 22
-0.4997597336769104
 32
0.7932763695716858
 13
-0.4760807752609253
 23
-0.4997597336769104
 33
0.7932763695716858
  0
3DFACE
  8
0
 10
0.0
 20
-0.3551727831363678
 30
1.1031478643417358
 11
0.0
 21
-0.3303453028202057
 31
1.1444306373596191
 12
-0.07007266581058502
 22
-0.3303132951259613
 32
1.1448687314987183
 13
-0.07007266581058502
 23
-0.3303132951259613
 33
1.1448687314987183
  0
3DFACE
  8
0
 10
0.0
 20
-0.3551727831363678
 30
1.1031478643417358
 11
-0.07007266581058502
 21
-0.3303132951259613
 31
1.1448687314987183
 12
-0.07357127219438553
 22
-0.3569079637527466
 32
1.095210075378418
 13
-0.07357127219438553
 23
-0.3569079637527466
 33
1.095210075378418
  0
3DFACE
  8
0
 10
-0.5412381887435913
 20
-0.5386462807655334
 30
0.3805166184902191
 11
-0.11391352862119675
 21
-0.5389152765274048
 31
0.3768364489078522
 12
-0.1254165917634964
 22
-0.636444628238678
 32
0.47152864933013916
 13
-0.1254165917634964
 23
-0.636444628238678
 33
0.47152864933013916
  0
3DFACE
  8
0
 10
-0.5412381887435913
 20
-0.5386462807655334
 30
0.3805166184902191
 11
-0.1254165917634964
 21
-0.636444628238678
 31
0.47152864933013916
 12
-0.5958927869796753
 22
-0.6361024379730225
 32
0.47620949149131775
 13
-0.5958927869796753
 23
-0.6361024379730225
 33
0.47620949149131775
  0
3DFACE
  8
0
 10
-0.4760807752609253
 20
-0.4997597336769104
 30
0.7932763695716858
 11
-0.10019997507333755
 21
-0.5001385807991028
 31
0.7880954742431641
 12
-0.07357127219438553
 22
-0.3569079637527466
 32
1.095210075378418
 13
-0.07357127219438553
 23
-0.3569079637527466
 33
1.095210075378418
  0
3DFACE
  8
0
 10
-0.4760807752609253
 20
-0.4997597336769104
 30
0.7932763695716858
 11
-0.07357127219438553
 21
-0.3569079637527466
 31
1.095210075378418
 12
-0.3495596945285797
 22
-0.3634171783924103
 32
1.0654330253601074
 13
-0.3495596945285797
 23
-0.3634171783924103
 33
1.0654330253601074
  0
3DFACE
  8
0
 10
-0.48983311653137207
 20
0.7696382999420166
 30
0.7997725605964661
 11
-0.2860390543937683
 21
-0.040512681007385254
 31
1.2668812274932861
 12
-0.06020217388868332
 22
-0.04057274013757706
 32
1.2660596370697021
 13
-0.06020217388868332
 23
-0.04057274013757706
 33
1.2660596370697021
  0
3DFACE
  8
0
 10
-0.48983311653137207
 20
0.7696382999420166
 30
0.7997725605964661
 11
-0.06020217388868332
 21
-0.04057274013757706
 31
1.2660596370697021
 12
-0.10309439152479172
 22
0.7674812078475952
 32
0.7702714204788208
 13
-0.10309439152479172
 23
0.7674812078475952
 33
0.7702714204788208
  0
3DFACE
  8
0
 10
0.0
 20
0.6335728168487549
 30
0.02859470248222351
 11
0.0
 21
-0.18023960292339325
 31
0.02859470248222351
 12
-0.07160968333482742
 22
-0.18023960292339325
 32
0.02859470248222351
 13
-0.07160968333482742
 23
-0.18023960292339325
 33
0.02859470248222351
  0
3DFACE
  8
0
 10
0.0
 20
0.6335728168487549
 30
0.02859470248222351
 11
-0.07160968333482742
 21
-0.18023960292339325
 31
0.02859470248222351
 12
-0.07160968333482742
 22
0.6335728168487549
 32
0.02859470248222351
 13
-0.07160968333482742
 23
0.6335728168487549
 33
0.02859470248222351
  0
3DFACE
  8
0
 10
0.0
 20
0.7520913481712341
 30
0.6415292024612427
 11
-0.11852806061506271
 21
0.752288818359375
 31
0.6442296504974365
 12
-0.10309439152479172
 22
0.7674812078475952
 32
0.7702714204788208
 13
-0.10309439152479172
 23
0.7674812078475952
 33
0.7702714204788208
  0
3DFACE
  8
0
 10
0.0
 20
0.7520913481712341
 30
0.6415292024612427
 11
-0.10309439152479172
 21
0.7674812078475952
 31
0.7702714204788208
 12
0.0
 22
0.7669061422348022
 32
0.7624071836471558
 13
0.0
 23
0.7669061422348022
 33
0.7624071836471558
  0
ENDSEC
  0
EOF
